<svg xmlns="http://www.w3.org/2000/svg" viewBox="0 0 402 258">
  <path d="M214 173h-8c-.267 21.981-24.8 36.989-35 51-7.127 9.792-12.942 23.431-24 29-3.945 1.987-30.554 4.826-34 3-4.479-1.273-6.609-3.5-7-9-.707-1.545-.129-.135 0-3 12.4-8.218 19.252-21.853 24-38l2-19c1.163-4.114 9.4-19.526 8-21-3.621-2.657-9.243-2.512-13-5-6.612-4.38-14.769-12.18-19-19-9.192-14.817-11.023-32.71-17-51-5.243-16.045-12.46-32.223-21-45-7.006-10.483-10.981-21.2-29-21-8.792 9.567-15.308 19.059-34 19-.961-1.766-1.257-1.68-2-4h1c1.647-3.235 5.139-3.285 7-6l4-12c-3.222-2.122-2.714-3.951-5-7-2.682-3.577-7.115-2.068-9-7l3-1c11.962-9.415 19.4 4.068 32 2 18.937-3.107 42.343 1.679 60 0 13.111-1.247 31.626-.312 50-1 8.542-.32 15.337 1.331 22 0 10.757-2.148 23.705 2.954 34 1 21.041-3.993 46.262 1.773 68-1 5.372-.685 12.244 1.425 16 1 10.535-1.191 24.726-1.983 32-1 .548.074 4.435 1.417 7 1 10.251-1.665 26.752-1.148 37 0 10.72 1.2 19.569-1 34-1 8.08 14.744-1.074 47.8-6 63-16.156 49.872-38.321 83.109-88 99-10.009 3.2-22.914 1.981-34 4-1.53 13.56-11.659 20.214-18 29-18.07 25.037-15.74 34.634-55 34-1.664-2.2-2.836-2.026-4-5-1.48-1.906-1.85-3.319-1-5 2.57-7.282 11.1-11.642 15-18 5.085-8.3 6.6-24.082 7-36ZM28 26l-1-5h2c1.295 2.468-.429.681 2 2l2-6h1v6l15-2c26.283 6.405 38.628 56.727 48 83h2l6-12h1l2 20c10.789-.231 21.9-2.8 31-5v2c-5.694 3.718-10.16 9.257-16 13 .631 1.754.193.971 1 2 1.651 6.387 5.81 8.964 7 16h-1c-1.531-2.077-10.369-7.938-11-7h-1c1.184 4.918.1 10.067 0 17 3.254 2.1 20.983 16.819 25 13 5.794-4.152 14.364-24.384 17-32-1.954-1.521-2.221-2.172-3-5 2.67-1.441 4.221-1.994 9-2v-4a28.9 28.9 0 0 1 9-1c2.188 1.745 3.591 1.207 5 4h1v1h-3c-2.373-1.733-6.512-2.571-10-3v2h1c2.6 2.389 5.9 3.03 8 6h-4c-2.842-2.245-8.157-2.879-13-3v2c2.381 1.294 4.749 2.411 6 5-4.975 1.974-7.219 3.825-8 10h1a21.1 21.1 0 0 1 6-4v2c-1.93 1.545-2.783 2.457-2 4 3.052 1.875 8.05.874 10 4-4.314.353-9.328 1.871-11 5-1.858 2.408-2.156 6.493-4 9v-2c-.976-1.515-1.417-6.271-2-8a2.834 2.834 0 0 0-1 1c-11.334 7.879-17.4 25.443-21 41-2.577 11.134-1.024 20.6-6 29-5.2 8.774-18.2 13.576-19 26 3.746 2.512 4.065 3.975 11 4 2.879-1.674 10.493.616 17-1 10.678-2.652 21.172-7.346 21-21-6.666 1.169-12.124 8.993-16 9a2.834 2.834 0 0 1-1-1c3.835-2.952 8.418-10.056 10-15h-7c-2.833 1.93-9.071 2.565-13 3v-1h1c4.653-5.474 17.144-6.143 20-13-2.559-3.219-4.5-15.291-2-17 2.676 4.813 6.417 11.094 12 13 2.486-4.04 7.269-11.285 12-13v5c-1.541 2.312-1.119 8.1-1 12h2c8.124-8.453 19.455-17.35 25-28 4.45-8.547 4.566-48.85 0-57-1.193-2.13-3.727-2.347-5-5h3c1.411 1.514 2.764 2.209 4 4 6.975 9.058 2.346 32.04 6 43 22.515-6.7 62.107 4.611 88-2 59.66-15.233 102.142-74.571 102-149-14.714.468-17.922 9.064-24 18-10.992 16.162-19.432 39.332-35 51-27.534 20.637-61.992 16.007-109 16l-1-2h14c9.57-4.9 35.414 4.387 54 0 12.079-2.851 21.5-5.42 30-11 5.147-3.378 12.072-4.349 13-12-1.5-1.552-.777-1.838-3-3-3.131 2.5-8.593 4-13 5v-1c2.908-1.921 5.163-5.058 7-8-3.981-1.469-9.539-2.885-12-6h2c1.993-1.471 4.649-1.812 8-2-.284-5.6-2.177-9.729-4-14h2c3.038 3.186 7.321 5.5 10 9h1c1.251-4.319 6.147-11.221 10-13-.4 1.469-1.31 10.494 0 13 1.769 2.151 3.408 2.571 7 3 7.746-13.6 15.285-33.439 28-42 3.756-2.529 13.447-2.307 16-6-1.039-.629-5.187-2.419-2-4h-32v1h1c2.959 2.889 8.067 4.127 10 8h-5c-1.992-1.337-6.507-1.1-10-1v2a32.9 32.9 0 0 1 7 13h-1c-2.545-3.683-8.392-7.544-13-9a32.262 32.262 0 0 1-2 10c-.8-1.021-.355-.274-1-2l-8-15-15 2v-1h1c2.871-2.768 7.341-5.164 11-7v-1H212v2c1.829 1.568 1.4.882 2 4h-2c-1.9-1.521-3.59-1.789-7-2a56.26 56.26 0 0 1-1 12c-.8-1.021-.355-.274-1-2-1.989-2.66-1.94-6.284-5-8-2.894 4.158-8.689 8.287-13 11v-2c2.683-2.805 4.9-7.8 6-12h-1v-1c-41.266-6.243-95.942-2-141-2H31C25.338 9.455 10.7.635 5 10c6.955.875 10.176 5.064 13 10h1v-1c4.389-2.665 6.123-5.592 13-6v1h-1c-3.55 2.869-8.468 4.2-11 8-2.67 4.01-2.068 10.325-5 14-2.134 2.675-5.294 2.452-7 6h6c5.786-4.038 11.124-5.466 16-10v-2a15.666 15.666 0 0 1-5-4h3Zm74 3 12 1v2a32.764 32.764 0 0 0-10 3v2c4.012 3.066 7.4 8.572 10 13h-2c-2.568-3.161-7.092-4.193-10-7-1.754.631-.971.193-2 1-3.281 4.183-4.872 10.88-7 16h-1c.154-4.279.744-11.388-1-14-4.551-4.129-12.177-5.151-16-10 4.608-1.189 9.459-3.276 10-9-1.521-1.895-1.789-3.59-2-7h1a13.162 13.162 0 0 0 9 6 21.759 21.759 0 0 1 12-6v1c-1.891 2.014-2.569 4.433-3 8Zm154 6 1-13h1v2c1.353 1.725 2.128 4.847 3 7h2c2.907-4.424 8.413-8.291 13-11v2c-2.359 2.8-6.225 13.438-5 16 1.614 6.074 6.036 9.136 8 15h-1c-2.793-3.476-8.833-6.017-13-8 .151 4.075.64 10.552-1 13v-2l-5-12c-1.754.631-.971.193-2 1-3.775 1.26-5.8 4.034-9 6v-2c2.209-2.253 3.444-5.052 4-9-3.161-1.5-4.787-2.431-6-6h1c1.838 1.238 5.7 1.089 9 1Zm-75 23 17 2v1h-1c-4.514 3.246-12 1.971-13 9 3.671 4.8 5.523 14.6 7 21h-1l-10-12h-1v2c-2.863 4.1-3.882 12.747-5 18h-1v-1c-2.131-3.48-.78-10.577-3-14-1.295-.877-2.467-.894-5-1l-12 4v-2a19.619 19.619 0 0 0 8-14c-3.936-3.022-9.54-10.829-11-16h1a31.234 31.234 0 0 0 13 7v-6c-1.049-1.549-1.031-4.085-1-7h1v1l6 8h1v-1l15-12v2a20.049 20.049 0 0 0-5 11Zm38 7c4.614 1.663 4.024 4.271 10 5 5.428-3.956 15.056-1.4 23-3 15.221-3.063 52.164-.878 56 10 3.067 3.778 1.179 6.811 0 11-15.3 7.956-47.743 11.367-70 6-8.294-2-15.133-.885-18-8-3.94-4.234-.364-8.506 1-13a10.668 10.668 0 0 1-5-4h1v-1c2.5 1.476 3.89 2.988 7 4v-1c-2.508-1.579-3.936-2.861-5-6Zm28 4c-9.254 5.315-20.808-2.065-25 10-.961 1.418-.976 3.273-1 6 13.523 8.807 34.936 8.993 55 8 12.3-.608 26.57.24 30-9 .877-1.295.894-2.467 1-5-1.833-1.734-2.808-3.53-5-5-10.117-8.069-37.728-5.1-55-5Zm16 3c10.606 3.136 30.413-2.068 35 7 .8 1.18.773 1.681 1 4-15 9.577-50.143 6.678-68 2a10.931 10.931 0 0 0-2-3c.631-1.754.193-.971 1-2 1.038-3.081.967-2.918 4-4 6.729-4.566 21.641.611 29-4Zm84 0c-1.121 2.091-1.434 1.832-2 5h1c1.283-2.072 2.077-2.3 3-5h-2Z" fill="currentColor" fill-rule="evenodd"/>
</svg>
