<svg xmlns="http://www.w3.org/2000/svg" viewBox="0 0 55 55">
  <path d="M29 1c2.328.2 2.826.193 4 1-3.188.506-2.92.872-5 2Zm21 0 2 2c-5.464 2.961-2.486 2.162-6 6-1.415-2.812-2.829-2.218-5-4 5.585-.037 6.519-1.179 9-4ZM34 3c.8 1.021.355.274 1 2h-1V3Zm18 0c1.077 1.737 1.035 2.271 0 4V3ZM22 5c2.532.074 3.716.12 5 1-2.532-.074-3.716-.12-5-1Zm13 0c.8 1.021.355.274 1 2h-1V5Zm5 1c1.828 1.568 1.4.882 2 4h-1c-1.824-2.7-1.156-.636-4 1 .877-2.72 1.707-2.939 3-5Zm-4 1c.8 1.021.355.274 1 2h-1V7Zm17 0c3.237 4.755.077 15.148-1 19h-1v-3c.933-1.9.379-1.169 0-4 2.646-.287 2.093-.825 2-6-.829-1.66-.238-2.585 0-6ZM13 9h2v1c-1.754-.631-.971-.193-2-1Zm3 0c2.076.372 1.924.242 3 1-2.076-.372-1.924-.242-3-1Zm14 0c.8 1.021.355.274 1 2h-1V9Zm17 0c.8 1.021.355.274 1 2h-1V9Zm4 0c.8 1.021.355.274 1 2h-1V9Zm-9 1c.8 1.021.355.274 1 2h-1v-2Zm-14 1h2v1c-1.754-.631-.971-.193-2-1Zm20 0c.8 1.021.355.274 1 2h-1v-2Zm-36 1c.8 1.021.355.274 1 2h-1v-2Zm31 0c.8 1.021.355.274 1 2h-1v-2Zm-21 1c.752 1.073.6.946 1 3h-1c-.74-.872-1.259-1.128-2-2 1.754-.631.971-.193 2-1Zm27 0c.752 1.073.6.946 1 3h-1v-3Zm-36 1c.752 1.073.6.946 1 3h-1v-3Zm26 0c.8 1.021.355.274 1 2h-1v-2Zm-7 1c.8 1.021.355.274 1 2h-1v-2Zm8 1c.752 1.073.6.946 1 3h-1v-3Zm5 0c.8 1.021.355.274 1 2h-1v-2Zm5 0c.752 1.073.6.946 1 3h-1v-3Zm-36 1c.8 1.021.355.274 1 2h-1v-2Zm9 0c.8 1.021.355.274 1 2h-1v-2Zm-8 2c-.514 2.627.384 2.131-5 2v-1c2.532-.074 3.716-.12 5-1Zm26 0c.8 1.021.355.274 1 2h-1v-2Zm5 0c.8 1.021.355.274 1 2h-1v-2ZM8 21h2c-1.613 3.535-4.5 6.277-7 4H2v-1c2.532-.074 3.716-.12 5-1 .8-1.021.355-.274 1-2Zm8 0c.8 1.021.355.274 1 2h-1v-2Zm26 0c.8 1.021.355.274 1 2h-1v-2Zm5 0c.8 1.021.355.274 1 2h-1v-2Zm-36 1c.8 1.021.355.274 1 2h-1v-2Zm6 1c1.877 1.924 2.514 3.524 3 7h-1v-2c-1.495-1.624-1.552-2.023-2-5Zm26 0c1.619 1.673 2.3 3.3 3 6h-1v-1c-1.495-1.624-1.552-2.023-2-5Zm5 0c.752 1.073.6.946 1 3h-1v-3Zm-36 1c.8 1.021.355.274 1 2h-1v-2ZM1 25c.277.361 2 1.383 1 3-2.508-1.926-.1-1.473-1-3Zm7 0c.8 1.021.355.274 1 2H8v-2Zm5 1c1.829 1.568 1.4.882 2 4h-1v-2c-.8-1.021-.355-.274-1-2Zm36 0h2c-.915 1.84-3.438 3.684-4 5-1.382 3.234-.171 9.515-1 12h-1v-2c1.6-2.6-.442-7.517 1-11 .606-1.462 2.2-1.581 3-4ZM5 27c.8 1.021.355.274 1 2H5v-2Zm-3 1c.8 1.021.355.274 1 2H2v-2Zm8 0c.8 1.021.355.274 1 2h-1v-2Zm-4 1c.8 1.021.355.274 1 2H6v-2Zm5 1c.8 1.021.355.274 1 2h-1v-2Zm4 0c1.828 1.568 1.4.882 2 4h-1v-2c-.8-1.021-.355-.274-1-2Zm5 0c.8 1.021.355.274 1 2h-1v-2Zm13 0c2.076.372 1.925.242 3 1-2.076-.372-1.924-.242-3-1ZM7 31c.8 1.021.355.274 1 2H7v-2Zm25 0a5.291 5.291 0 0 1 0 6v-6ZM5 32c1.116 1.66 1.77 1.069 0 2v-2Zm7 0c.752 1.073.6.946 1 3h-1v-3Zm9 0c.8 1.021.355.274 1 2h-1v-2ZM8 33a26.339 26.339 0 0 1 4 5c-3.848-1.193-4.328-2.274-4-5Zm26 0c3.973 1.293 4.737 3 5 8h-2v-2c-1.938-1.607-2.323-3.065-3-6Zm4 0c.8 1.021.355.274 1 2h-1v-2Zm-21 1c.8 1.021.355.274 1 2h-1v-2Zm5 0c.8 1.021.355.274 1 2h-1v-2Zm-8 2c.8 1.021.355.274 1 2h-1v-2Zm9 0c.8 1.021.355.274 1 2h-1v-2Zm-4 4c.372-2.076.242-1.925 1-3a12.667 12.667 0 0 0 1 4c3.321-1.489 2.249-3.315 4-1 3.461 1.544 6 2.98 8 6h-2c-4.072-5.407-14.753-2.912-19-8h2c1.065.891 1.667 1.3 5 2Zm14-3c.8 1.021.355.274 1 2h-1v-2Zm7 0c.752 1.073.6.946 1 3h-1v-3Zm4 6c.8 1.021.355.274 1 2l-5 3 5 6h-2c-2.715-4.1-6.509-4.812-10-8 5.383.664 8.114 1.087 11-3Zm0 5c1.077 1.737 1.035 2.271 0 4v-4Z" fill="currentColor" fill-rule="evenodd"/>
</svg>
