<svg xmlns="http://www.w3.org/2000/svg" viewBox="0 0 308 114">
  <path d="M166 36c-.018-6.291-.394-13.412 0-17h1c.245 3.76.212 14.236 3 16 3.385-2.62 10.4-3.962 15-5V13c-1.337-1.992-1.1-6.507-1-10h2v1c4.406 7.236.724 17.867 3 25 18.672-6.573 40.205-10.51 58-17 4.316-1.574 16.536-5.491 19-4h1c-1.021.8-.274.355-2 1-10.15 7.483-42.929 13.694-57 18-6.141 1.879-13.36 1.579-18 5-3.823 6.061-1.11 42.813-1 53 1.8 2.755 1.916 10.092 2 14h-2v-5c-5.833-9.361-1.355-38.319-3-47V33h-2c-3.721 2.621-11.275 3.925-16 5v4c3.531 5.168.867 49.982 1 57h-2v-2c-1.933-3-.107-8.606-1-13-2.8-13.792-.1-25.531 0-45h-2l-20 7v-2l3-1c4.23-3.284 13.1-6.1 19-7ZM22 49c1.938 1.667 1.668 1.439 2 5 3.945 6.184 7.571 45.034 6 50h-1v-1c-5.182-8.34-3.546-33.931-7-44h-1c-.928 8.426-5.089 14.735-8 22h-2c-1.519-2.812-3.542-7.941-6-10v1c1.775 3.564 2.264 26.043 1 31H5v-1c-3.994-5.756-3.344-30.353-4-41h2v-1h1v1c3.225 3.163 5.723 9.087 7 14 .8-1.021.355-.274 1-2 5.2-5.649 6.881-16.49 10-24Zm257 1v3c-4.867.815-10.942 1.914-12 7 .563 1.3 1.07 6.16 1 11h6v3l-6 1c1.5 4.466.168 8.995 0 15 4.544-.4 8.026-1.353 12 0v1l-12 2c-2.574-4.875-2.124-14.21-2-22-1.854-2.811-1.128-10.487-1-15 4.665-2.181 8.175-5.06 14-6ZM69 52h4l1 3c4.577 6.741-2.52 17.043-4 22 5.135 3.859 10.862 11.33 12 19h-1c-2.912-5.324-5.972-11.716-11-15v13c1.337 1.992 1.1 6.507 1 10h-2c-1.043-13.319-6.287-39.805 0-52Zm1 2c-1.24 3.609-1.071 9.883-1 15h1v-1c3.042-3.467 3.8-10.744 0-14Zm222 9h-11v-2l26-1v1h-1c-2.324 1.449-9.4 1.155-12 2 3.038 9.051 1.083 25.056 1 36h-2v-5c-3.577-5.586-1.134-23.09-1-31ZM88 62c4.508 5.148 3.953 20.636 4 27h-2v-7c-2.62-4.054-2.094-13.986-2-20Zm141 0 4 1v1c-5.649.336-7.621 2.386-8 8-2.69 4.04-.352 12.206 0 17a28.9 28.9 0 0 0 9 1c1.667-3.1 2.095-6.486 2-12h-2c-1.925 1.448-4.529 1.782-6 1h-1v-1h2c2.036-1.735 6.206-2.991 8-2 3.578 4.643 3.085 18.482 3 26h-1v-1c-1.875-3.052-.874-8.05-4-10-2.852 3.4-7.56 1.529-11 0-3.349-7.128-2.953-15.923-1-24Zm-94 5c1.969 3.016.059 27.039-1 32h-2v-1c-3.207-3.407-4.871-9.664-6-15h-1l-2 20h-1v-1c-.8-1.18-.773-1.681-1-4 2.348-3.779 2.185-14.891 3-19h1v1c4.219 3.05 4.977 9.875 7 15h1V74c.884-1.34 1.461-5.446 2-7Zm-88 2 3 1c.951 10.043 3.483 22.559 7 31h-2v-1c-4.739-6.272-4.132-17.977-7-26h-1c.012 7.1-1.292 24.2-6 27v-6c2.79-4.079 4.667-20.786 6-26Zm59 2h4c4.841 7.567 5.424 17.939 3 28-2.725 1.708-2.5 2.536-7 3l-5-7c-.327-11.659.917-17.676 5-24Zm150 1c6.051 6.59-.331 22.1-2 28h-4a40.749 40.749 0 0 1-3-25h1v1c1.629 2.819 1.067 12.431 1 18 1.36 1 1.806 1.929 3 3v-1c6.534-5.733 1.9-17.079 4-24Zm-149 1c-.961 1.766-1.257 1.68-2 4-3.712 4.522-2 16.276 0 21 1.766.962 1.68 1.257 4 2v-1c2.694-1.865 2.86-2.377 3-7 2.65-3.926-.452-14.961-2-19h-3Zm92 2h2c-.322 13.2.414 25.853 5 34h1v-1c5.271-4.51 3.2-22.539 3-32h1v1c5.373 8.026-.238 30.339-3 35-10.832-5.314-10.8-27.268-9-37Z" fill="currentColor" fill-rule="evenodd"/>
</svg>
