<svg xmlns="http://www.w3.org/2000/svg" fill="currentColor" width="1473" height="510" viewBox="0 0 1473 510">
  <path id="M" class="cls-1" d="M102,262h2l-2,6,2,1v5h1v1h-1v1h1q0.5,4.5,1,9h1v2h1q-0.5,2-1,4h1v4h1v2h1c0.85,2.366-.839,3.768-1,5h1l2,6h1v8l2,1-1,3h1v3c0.61,1.268,1.916-.2,2,3h-1v1h1v3h1v1h-1v1h1v2h1v1h-1c-0.464,2.4,1,3,1,3q-0.5,2.5-1,5l2,1c0.63,1.668-1.754.293-2,2h1q0.5,3,1,6h-1v1h1v2h1l-2,3h1v2h1c0.187,0.956-2.644,4.7-2,7h1v2h1l-1,3h1v6h1l-1,3h1q-0.5,2.5-1,5h1q0.5,3,1,6h1v1h-1q0.5,6,1,12h1l-1,3h1v3h1l-1,2,1,2h-1v1h1v3h1v1h-1v1h1v1h-1l3,9q0.5,9,1,18h1v1h-1v1h1v3h1v6h1c0.239,1.394-.68-0.378-1,1v6a3.978,3.978,0,0,0-2,2h-2l-1-2c-1.991-2.381-.856-4.739-2-8h-1v-4h-1v-2h-1v-3h-1v-5h-1v-5h-1v-2h-1l1-2h-1v-3h-1v-2h-1v-5l-2-1v-4h-1v-4h-1v-4h-1v-2h-1c0.347-2.732,1.254-5.233,0-9h-1v-1h1c-0.408-1.555-1.4-1.045-2-2l1-2h-1q-0.5-5.5-1-11h-1v-4h-1l1-3h-1v-3h-1l1-2h-1v-5h-1l1-2h-1v-2h-1v-4h-1l1-3h-1v-2h-1c0.083-1.4,1.583-1.613,1-4h-1v-1c0.769-1.045,1.326.376,1-1h-1v-4H99l1-3H99v-7H98l1-2H98l1-5H98v-2H97c0.1-2.267,1.89-1.136,2-2v-1H98v-7H97v-5H96v-1h1v-1H96v-6c-0.373-1.364-.934.413-1-1,0.777-1.125,1.312.379,1-1H95V286H94v-6H93v-5H92v-8H91l1-6H91v-4H90v-1h1l-1-2a1.679,1.679,0,0,0,1-2H90l-1-13h1v-1H89v-1H88v1H87v3l-2,1,1,3-3,2-1,6H80q-0.5,4-1,8H78c-0.241,1.394.847-.406,1,1l-1,6-2,1,1,2H76l-1,4H74v4l-2,1,1,2H72v2l-2,1v4H69l-2,9H65v4H63c0.386,2.091,1.011,1.243,0,4H62c-0.27.775,1.29,1.2,0,4H61v2H60l1,3H59c-0.683,3.305-1.753,3.839-2,8H55l-1,6H52c-0.481,3.14-1.746,2.4-2,3l1,4-4,2v-2c-2.01-.574-0.865.12-2-1H44v-3l-3-2-1-6H39v-2H38v-3H37v-3H36v-3H35l-1-6-2-1v-4l-2-1v-3l-2-1-2-9-2-1,1-2H24l-7-18H15l1,3a2.08,2.08,0,0,0-1,2h1v1H15v1h1v3h1v1c-0.52,1.315-.994-0.414-1,1h1v1c-0.494,1.325-.956-0.414-1,1h1v1H16v1h1v1H16v1h1v5h1c0.217,1.211-1.895,1.759-1,4l2,1v2h1c0.609,2.684-1.777,2.06-2,4h1v3h1v1H19v1h1v1H19v1h1l-1,7,2,1c0.3,1.518-1.866,1.377-2,2-0.3,1.382.627-.364,1,1v5h2c-0.67,1.373-1.524,1.3-2,2l1,2H20v4h1v1H20l1,2H20v1h1v2h1v1H21c-0.266,1.79,1,5,1,5l-2,1,1,3c-0.329,1.376-.956-0.414-1,1h1v1H20v4H19v1l2,1-1,2h1v1H20l-1,6H18c-0.238,1.394.2-.168,1,1l-1,2h1v1H18v3H17v1c0.805,1.15,1.294-.383,1,1H17l1,5H17v10h1c0.436,1.955-.639,1.337-1,2v1h1l-1,10H16l1,2H16v1h1q0.5,13.5,1,27c0.334,5.707.125,15.6-1,17-0.607,2.393-.318,1.858-2,3v1H14v-1c-3.615-4.179-.158-11.621-2-18H11v-9H10c-1.639-5.337.634-14.689-1-20V395H8l1-3H8v-3H7v-7H6v-1H7v-1H6l1-2-2-1,1-3H5v-3H4l1-2H4L3,357H2c-0.648-2.367,1.07-2.649,1-4H2v-7H1l1-2H1v-3H0l1-3H0v-1H1a1.748,1.748,0,0,0-1-2c-0.263-1.389.8,0.4,1-1s-0.717.385-1-1l1-3H0v-4H1c0.125-.767-1.793-6.222-1-9H1v-6c-0.191-1.4-1.112.41-1-1H1v-2H2v-1H1c-0.49-2.577,1-3,1-3,0.616-2.376-1.061-2.639-1-4H2V288H3a1.615,1.615,0,0,0-1-2v-1H3v-9H4q0.5-20,1-40H6v-1H5V225H4l1-7c2.762,0.723,2.237.279,3,3H9l1,5h1v4l4,3,1,4h1l1,9h1v2h1l1,6h1v4l2,1v3h1v2l2,1v4l2,1v4l2,1v4c0.638,1.54,5.5,7.472,3,9h2c0.178,2.3.179,2.6,1,4h1l-1,2h1l1,4h1v3h1v2h1v2l2,1c0.625,1.269-.779.077-1,1l1,2H43v1h1c0.941,2.8,1.439,9.294,3,11v-1h1l1-6h1v-3h1v-2h1v-3l2-1-1-2h1v-3l2-1-1-3,2-1v-3h1v-2h1l1-7,2-1,1-5h1v-2h1l1-7h2c-0.085-6.124,1.461-10.719,3-15v-4l2-1v-2h1v-3l2-1,1-4h1l1-4h1v-3h1v-1H80v-1h1v-2h1l4-13h2c0.776-3,.616-2.63,4-3a12.112,12.112,0,0,0,2,2l-1,4h1v2l2,1v5l2,1v2h1c0.263,1.39-.78-0.4-1,1v4h1l-1,3C99.792,243.685,101.871,252.7,102,262Z"/>
  <path id="A" class="cls-1" d="M218,276h2q0.5,2,1,4h1v3h1v3h1v5h1v2h1v3h1v5h1v1c-0.707.884-1.385-.361-1,1h1v3h1v2h1l-1,2h2l-1,2h1v2h1c-0.114,1.309-1.758,1.732-1,4h1v2h1l-1,2h1v2h1l-1,2h1c1.04,3.175.888,5.131,2,8h1l-1,3h1v5l2,1-1,3h1v3h1v1h-1l1,2h-1v1l2,1c-0.046,1.413-.846-0.406-1,1q0.5,6,1,12h1v2h1v1h-1l1,3c5-1.949,15.368-2.01,21-1-1.017,3.975-4.146,4.877-6,8-3.085-.251-1.931-1.078-5,0v1h-1v-1h-1v1h-1v-1l-5,1a59.081,59.081,0,0,0,5,26h1l-1,2h1q0.5,2,1,4h1v3h1v2h1v3h1v3h1v3h1v3l2,1-1,2h1v4h1l2,6h1q0.5,5.5,1,11l2,1-1,2h1v2h1q0.5,3,1,6h1l-1,2h1v2h1c0.781,2.152-1,6.98-1,7h1v6h1v3c0.439,1.344.916-.412,1,1h-1v1s0.715,0.093,1,2h-3v-1h-1v-2l-2-1v-2h-1v-2l-2-1v-2h-1v-2h-1v-4l-2-1v-3h-1q-0.5-3-1-6h-1c-0.839-1.435-.7-1.712-1-4-2.01-.574-0.865.12-2-1h1c1.149-1.863-.824-4.174-1-5h1c0.292-1.384-.656.372-1-1s0.7,0.383,1-1v-1h-1v-3h-1v-6h-1l1-2h-1v-3h-1v-6h-1v-2h-1l1-2h-1v-3h-1l1-2h-1v-3h-1v-2h-1l-3-14h-1v-5l-2-1,1-2c-0.957-2.074-3.753-8.6-2-10h-3v1c-2.121,1.138-4.064-1.177-5-1v1h-2v1l-2-1v1h-4v1l-5-1v1h-1v-1l-3,1c-1.045-.727.37-1.349-1-1l-1,2a20.708,20.708,0,0,0-4-1c-0.6,1.223-1.707,1.511-2,2v2h-1v8h-1v3h-1v4h-1v1h1v1h-1l1,2-2,1v3h-1c-0.569,1.885.5,1.371,1,2v1h-1v4l-2,1q-1,4.5-2,9h-1l1,2h-1v4h-1v7l-2,1v4h-1v2h-1l1,2-2,1,1,2-2,1c-1.421,2.491.255,3.271,0,4h-1v1c-1.191.727-2.927,3.713-5,3v-1h-2l-3-9,1-3h-1v-1h1V435h1v-1h-1v-1h1v-5h1v-5h1v-1h-1l1-3h1v-5h1v-3h1a7.455,7.455,0,0,0,1-5h-1c0.277-1.62,1.831-1.612,2-2v-4h1v-3h1c0.942-2.4.1-5.638,2-7v-1h-1v-1c-2.163-1.22-5.155,1.18-6,1v-1h-2v1c-1.381.041-1.6-1.525-4-1v1h-1v-1h-1a1.6,1.6,0,0,1-2,1v-1h-3l-3,1v-1l-5-1,1-3c8.263-.42,16.655-3.652,30-5q0.5-2.5,1-5h1v-5h1v-2h1c0.431-1.347-.626.364-1-1-0.485-1.767.9-1.654,1-2l-1-2h1v-2h1a2.612,2.612,0,0,0-1-3v-1h1v-5h1v-3h1v-5h1v-5h1v-5h1v-3h1v-4h1v-3l2-1c0.589-1.286-.772.078-1-1v-1h1v-4h1v-3h1v-3h1q0.5-3.5,1-7h1q1-7,2-14C215.381,284.924,217.471,280.965,218,276Zm-4,57,1,3h-1v5h-1v1c-0.219,1.388-.569,4.076,1,4v1h-2q-0.5,7.5-1,15l-2,1,1,3h1l-1,3h-1v1h1l-2,6h1v1h4v-1h4v1h1v-1h4a48.1,48.1,0,0,1,14-2l-4-12q-0.5-4-1-8l-2-1,1-3h-1v-2h-1q-0.5-4.5-1-9h-1q-0.5-3.5-1-7h-1c-1.17-2.6-.3-2.047,0-4h-1l-3-19-1,3h-1c-0.629,1.267.785,0.079,1,1,0.416,1.784-.893,1.621-1,2l1,2h-1v2h-1v6h-1v1h1v1h-1c-0.718,2.168-.408,5.645,0,6h-2Z"/>
  <path id="R" class="cls-1" d="M341,310l1,3h-2l1,2-2,1c-1.18,2.487.16,4.951-1,7l-2,1v4l-3,2c-0.864,2.4,1.585,2.1,2,3v2l4,1,1,4h2c0.684,2.927,1.113,3.274,4,4v2l6,5v2l2,1v2l4,3v3h1l1,3h2l2,6h1v2l2,1v3l3,2v2l2,1v2h1v2h1v2h1v2h1q0.5,2.5,1,5l2,1-1,3h1v2h1q0.5,2.5,1,5h1l1,4h1q0.5,3,1,6l2,1v2l2,1v2h1q0.5,3,1,6l2,1v6h-1c-0.666-1.266-1.58-1.37-2-2v-2l-2-1v-2l-3-2v-2l-3-2-1-4-2-1v-3l-2-1v-3l-2-1-2-6-2-1v-3h-1l-3-9h-2c-0.644-2.739-1.309-2.276-2-5h-2c-0.357-3.031-.646-3.224-2-5h-1l-1-4-2-1v-3h-1v-2l-2-1v-2l-2-1v-2l-3-2v-2h-1a13.109,13.109,0,0,1-3-6c-2.485-.691-1.635-0.5-3-2h-1v-2l-3-2v-2l-2-1v-2h-1v1h-1c0.9,2.461.123,6.494,1,10h1v1l-1,3h1v4h1l-1,3h1v4h-1v1h1c0.391,2.43-.923,2.556-1,4l1,2h-1q0.5,3,1,6h-1v3h1v1h-1a1.707,1.707,0,0,0,1,2l-1,2c0.753,1.2,1.258-.39,1,1h-1q0.5,5,1,10h-1c-0.327,1.376.037,0.774,1,1v1h-2l1,3h-2c0.213,1.906,1.947,1.672,2,2v1h-1v5h-1c-0.706,2.445,1.052,5.56,1,6h-1v6h-1v1c0.763,1.016,1.333-.374,1,1h-1v9c-0.006,6.573-.19,17.08-2,22h-3q-1-4.5-2-9h-1V435h-1V421h1v-1h-1c0.475-3.3,2.413-11.241,1-16h-1v-9h-1c-0.173-1.278,1.607-1.662,1-4h-1V381h-1v-1h1v-7h-1l1-2h-1v-4h1c0.322-1.734-.918-1.673-1-2V354h1l-1-3h1v-1h-1V340h-1v-1h1v-1h-1V327c-0.175-2.059-1-2-1-2V310h-1q0.5-3,1-6h-1v-8c-1.281-5.058-2.32-20.632-1-26v-7h-1V235h1l-1-2h1v-9c2.993-2.176.414-1.435,2-4h1l3-4h3l1-2h2l1-2h3v-1c11.251-3.737,18.506,6.829,21,15v8h1c0.714,2.517-1.08,8.656-1,9h1c1.393,7.151-.554,18-2,23v10h-1q-0.5,3.5-1,7h-1l1,2h-1v2h-1v5l-2,1v5l-2,1v5h-1v3h-1v1l1,2h-2Zm-9-88h-2v2h-2c-1.643,3.1-1.9,1.8-2,7-1.836,2.021-.219,5.682-1,9h-1v1h1l-1,3h1v12h-1v3h1c0.138,1.31-1.612,1.645-1,4h1v12h1v5h1v6h1l-1,3h1c1.158,4.105-.114,5.337,1,7v1l-2,1,1,2h-1v1h1c1.2,4.372-.867,13.789,2,17l3-14,2-1q1-4.5,2-9h1v-2h1v-4h1a24.69,24.69,0,0,0,2-8h2c0.64-6.667,3.34-12.625,5-18v-6h1c1.607-5.659-.622-27.261-2-31h-1l-1-4h-2c-0.723-2.762-.279-2.237-3-3v-1h-5c-0.7,1.332-1.5,1.287-2,2v2h-1v-1C331.921,221.131,332.558,219.992,332,222Z"/>
  <path id="I" class="cls-1" d="M423,249h3c0.543,3.638,2.325,7.227,1,10h2l-1,3h1q0.5,3.5,1,7h1l-1,2h1q-0.5,2.5-1,5h1q-0.5,5.5-1,11h1l-1,2v1h1c0.289,1.384-.739-0.39-1,1v1h1c0.475,2.563-1,3-1,3-0.825,3.283.608,5.734,1,8l-2-1v1l2,1c0.246,0.587-1.24,2.179-1,4h1v1h-1v7h1v1h-1v4h-1v1h1l-1,3h1c0.864,3.6-.519,11.368,1,17h1v1h-1c-0.194,1.4.6-.358,1,1v3h1l-1,3v3h1l-1,2h1v1h-1v4h-1l1,3-1,2h1v11h1l-1,3v1h1l-1,2h1v2h-1c-0.187,1.259,1.59,1.671,1,4h-1v6h-1l-1,3h-3c0.427-4.424,2.681-15.489,1-21h-1v-5h-1v-3h-1v-4h-1v-8h-1v-7h-1v-1c1.8-2.743-.848-12.216,1-20h1q-0.5-2.5-1-5h-1c-0.228-1.4.872,0.408,1-1,0.2-2.227-1-2-1-2V309c-0.824-2.671-1.952-4.83-2-9V276h1v-5h1v-1h-1a1.688,1.688,0,0,1,1-2l-1-2h1Q422.5,257.5,423,249Z"/>
  <path id="O" class="cls-1" d="M529,317c0.8,3.423,3.713,5.137,5,8l3,12,2,1q0.5,3,1,6h-1c0.42,2.057,1.96,1.226,2,4h-1c0.476,2.925,3.233,4.387,1,6,0.9,1.955.839-.256,2,1v1h-1q0.5,1,1,2s-2.132.153-1,1h2q-0.5,1.5-1,3l2,1c0.3,1.382-.88-0.409-1,1-0.148,1.73,1,2,1,2v1h-1v1h1v3h1v1h-1v3h-1c-0.209,1.4.82-.4,1,1a1.81,1.81,0,0,1-1,2q0.5,1.5,1,3h-1v5h-1v1a1.649,1.649,0,0,1,1,2h-1q-0.5,10-1,20h-1v2h-1v3h-1v5h-1v3h-1v5h-1v5h-1v8c-1.161,3.453-4.056,6.353-5,10h-2v1h1c1.889,0.86-2,1-2,1v2c-3.428.871-2.575,2.068-6,3v2l-6,1v1c-4.53,1.536-9.27-1.61-13-2v-2l-2,1-3-4-3-1v-1l-2-1v-3l-3-2v-2h-1v-2h-1v-3h-1v-2h-1v-3h-1v-4h-1v-2h-1v-6h-1q-0.5-4-1-8h-1c-0.185-1.261,1.583-1.67,1-4h-1V400q0.5-13,1-26h1q0.5-4.5,1-9h2v1h-1v1h1v11h1v1h-1a2.549,2.549,0,0,0,1,3l-1,2h1v3h1v1h-1v1h1v6h1v7h1l-1,3h1q0.5,5,1,10h1v3h1v4h1v2h1l-1,2c1,1.525,1.63-.518,2,3h-1v1h2v2h-1c-0.434,1.512,2.537,2.246,3,3l1,4h2v3c2.762,0.723,2.237.279,3,3h2v2h3v2c3.643,0.447,7.455,3.151,10,1,7.656-1.869,11.625-9.8,14-17v-6h1v-2h1v-6h1v-6h1q-0.5-1-1-2h1v-3s-1.3-.141-1-2h1v-4s-1.315-.418-1-3h1v-1h-1v-1h1v-1h-1v-8h-1a1.652,1.652,0,0,1,1-2c0.28-1.746-.9-1.64-1-2V370h-1q0.5-1.5,1-3h-1v-5h-1v-1h1v-1h-1v-4h-1c-0.679-2.357,1.064-2.653,1-4h-1v-7h-1q0.5-1,1-2h-1v-5h-1v-5h-1v-1h1v-1h-1v-4h-1v-2h-1v-3l-2-1q-0.5-1.5-1-3h-1q-0.5-1.5-1-3c-2.978-.578-9.428-2.622-13-1l-1,2-4,1c-0.967,4.526-3.223,3.743-6,6l1,2h-2l-1,3h-1c-1.047,2.064-.793,5.967-2,8l-2,1q-1,6-2,12c-1.105,3.382-3.154,6.354-4,10h-1c-0.454-4.165-2.569-11.627-1-17h1v-6h1v-2h1q0.5-3.5,1-7h1l2-6h1v-2h1a8.437,8.437,0,0,0,2-4c2.6-.684,3.246-1.576,5-3v-1c3.029-2.105,8.266-3.719,13-4v1l7,1v1h3q0.5,1,1,2h2v1l2,1v2Z"/>
  <path id="N" class="cls-1" d="M643,291h1a1.453,1.453,0,0,1-1,2q0.5,2,1,4h-1c-1.139-1.139,0-.4-2-1v-1h1v-3h1v-1Zm1,67h-2c1.361,3.252,1.087,8.993,2,10v1h-1v5h-1v1h1v1h-1v1h1c-0.01,1.927-1,2-1,2-0.448,1.936.369,1.3,1,2v1h-1v6h-1v1h1q-1,4.5-2,9h1a1.755,1.755,0,0,1-1,2q0.5,1,1,2h-1v5h-1v6s-1.128-.232-1,2h1v1h-1v1h1v1h-1v6s-1.1-.234-1,2h1v1h-1v1h1v1l-2,1q0.5,1.5,1,3l-2,1c-2.014,3.882,1.332,4.1-5,5q-0.5-1.5-1-3h-1q-0.5-3.5-1-7h-1v-4h-1v-3h-1v-6h-1v-5h-1q-1-3-2-6h-1v-3l-4-3v-2l-2-1v-2l-2-1q-0.5-2-1-4l-2-1v-3l-2-1v-2h-1l-8-28-3-1v2h1v1h-1v3h-1v3h-1q0.5,2.5,1,5h-1v5h-1q0.5,1.5,1,3h-1v6c-0.369,1.365-.909-0.411-1,1h1v1h-1v20h-1q0.5,2,1,4,0.5,14.5,1,29h-1v7h-1c-1.36,4.616-.254,9.612,0,11l-2,1q0.5,1.5,1,3h-1c-1.256,1.909-1.014,1.659-4,2-0.918-2.437-1.037-6.193-1-10h1c1.133-2.134-1.127-4.025-1-5h1v-6s-1.164.145-1-2c0.108-1.41.652,0.371,1-1V424h1V414h1v-1h-1c0.049-2.048,1-2,1-2V401h1q-0.5-1.5-1-3c1.093-4.821,1.526-13.573,1-20q-0.5-2-1-4c0.823-1.15,1.225.4,1-1h-1v-5h-1v-1h1v-1h-1v-6h-1v-1h1v-3h-1q0.5-3,1-6s-1.068,0-1-2h1v-1h-1v-7h1v-1h-1v-6a38.829,38.829,0,0,0,2-8h2q0.5-1,1-2h4v1h1c0.617,8.407,5.329,12.783,7,20h2c1.752,9.546,8.276,15.164,9,26h2v1h-1v1h1v4h1v3c0.435,0.838,2.079.358,2,2h-1l3,5c-0.033.165-1.58,0.349-1,2h1v2h1v3h1v4h1v2h1v4h1q0.5,2,1,4h1q-0.5,1.5-1,3l2,1v4h1v1h-1v1h1v2h1v4h1c-0.279-15.006,1.69-25.4,4-37q-0.5-1.5-1-3h1a2.782,2.782,0,0,0-1-3c-0.328-1.662.955-1.779,1-2v-1h-1q0.5-1.5,1-3V364h-1v-1h1c0.227-1.4-.794.4-1-1q0.5-1,1-2c0.079-1.412-1.09.411-1-1h1v-4h1q-0.5-1.5-1-3v-1h1v-5h1q-0.5-1-1-2h1v-3h1q-0.5-1.5-1-3h1v-3h1v-5h1v-5h1q0.5-7,1-14h1q0.5-7,1-14h1a3.982,3.982,0,0,0,2,2c-0.478,1.383-1.34,1.66-1,4a1.6,1.6,0,0,1,1,2h-1c-1.617,6.919.435,17.584,1,23h-1q0.5,3,1,6h-1v6h-1v1h1v2h1v1h-1c-0.864,3.278.8,7.157,1,9l-2,1A19.878,19.878,0,0,1,644,358Z"/>
  <path id="H" class="cls-1" d="M892,2h2q0.5,2.5,1,5h1l-1,2c0.821,2.008,2.716,8.664,2,12-0.052.242-1.3,0.331-1,2h1v7h-1c-0.248,1.392.76-.394,1,1,0.3,1.749-1,2-1,2l1,3h-1q0.5,2.5,1,5h-1v1h1v7h1l-1,2h1q0.5,3.5,1,7h1v4h1v5h1c0.284,1.385-.786-0.4-1,1l1,3h-1v1l2,1v5h1c0.193,1.052-1.818,2.665-1,5l2,1-1,3h-1c-0.324,1.354,1.482,3.889,1,7h-1v1h1v6h1c0.292,1.384-.78-0.4-1,1q0.5,1,1,2h-1c-0.231,1.395.794-.4,1,1s-0.736-.389-1,1,0.785-.4,1,1a20.794,20.794,0,0,0-1,4l5-1v-1h4v-1h3v-1h2v-1h4v-1h3v-1h4v-1c0.42-.132,9-1,9-1v1h1v-1h3v-1l3,1v-1l8-1V99h3V98h4V97l18-2V94h3V93l9-3V89h2V88h4V87h2V86l2,1V86h2V85h3V84h4V83h2V82h4V81h3V80h3V79c0.67,0.333,1.33.667,2,1V79h2c0.33-.667.67-1.333,1-2l33-5V71l11-2V68l3,1V68h4V67h4V66l10-1V64h3V63h3V62h3V61h3V60h4V59l3,1V59h3V58h5V57h4V56c0.67,0.333,1.33.667,2,1V56h5V55l4-1V53h3V52h3V51h3V50h5V49l7-1V47h3V46h4V45l6-2V42h2V41h2V40h2V39h4c0.33-.667.67-1.333,1-2l12-2V34h3V33h3V32h3V31l4-1V29h3V28h2V27h3V26h2V25l17-4c0.33-.667.67-1.333,1-2l4-1V17l4-1V15l5-1c0.33-.667.67-1.333,1-2,0.67,0.333,1.33.667,2,1V12h3V11h4V10h5c8.67-2.929,12.78-5.613,22-4-1.03,3.789-2.16,3.139-5,5-0.33.667-.67,1.333-1,2h-4v1l-4,1v1h-5v1h-2v1c-0.67-.333-1.33-0.667-2-1-0.33.667-.67,1.333-1,2-0.67-.333-1.33-0.667-2-1-0.33.667-.67,1.333-1,2-0.67-.333-1.33-0.667-2-1-1.64.3-1.04,1.3-2,2-0.67-.333-1.33-0.667-2-1-0.33,1-.67,2-1,3l-3-1v1h-2v1l-3,1v2c-0.67-.333-1.33-0.667-2-1v2c-0.67-.333-1.33-0.667-2-1v1h-3c-0.33.667-.67,1.333-1,2h-5v1h-3v1c-0.67-.333-1.33-0.667-2-1-0.33.667-.67,1.333-1,2h-1V32l-5,1v1h-4c-0.33.667-.67,1.333-1,2-0.67-.333-1.33-0.667-2-1v1h-2c-0.33.667-.67,1.333-1,2l-8,1v1h-2v1c-0.67-.333-1.33-0.667-2-1v1l-7,1v1h-1V42h-1v1h-4v1h-3v1l-4,1v1h-4c-0.33.667-.67,1.333-1,2h-4v1h-3v1h-4v1h-4v1h-5v1h-5v1h-4c-0.33.667-.67,1.333-1,2h-3v1h-3v1h-3v1h-5v1c-0.67-.333-1.33-0.667-2-1v1h-4v1h-3v1l-11,1v1h-2v1l-13,3c-0.33.667-.67,1.333-1,2-0.67-.333-1.33-0.667-2-1v1h-5v1h-4v1h-5c-0.33.667-.67,1.333-1,2h-1V74c-1.38.3,0.34,0.551-1,1h-4v1h-2v1h-3v1c-0.67-.333-1.33-0.667-2-1-0.33.667-.67,1.333-1,2h-6v1c-1.38.294,0.19-.243-1-1h-1v1h-3v1h-2v1c-1.38.309,0.41-.842-1-1l-3,1V81h-1v1c-2.77,1.119-5.04.757-8,2v1c-0.67-.333-1.33-0.667-2-1v2l-3,1V86h-1c-0.33.667-.67,1.333-1,2l-4,1v1h-6v1l-6,2v1h-2v1h-5v1h-2v1h-3v1h-2l-1,2h-2q-0.5,1-1,2l-6,2v-1h-1q-0.5,1-1,2h-3v1l-3,1v-2h-1q-0.5,1-1,2l-3-1v2h-1v-1h-1v1h-6c-1.351.417,0.408,0.864-1,1v-1h-1q-0.5,1-1,2h-3v1h-2v1c-2.183.765-2.763-.779-4-1v1h-2v1h-6v1h-6q-0.5,1-1,2h-7q-0.5,1-1,2l-3-1q-0.5,1-1,2h-3q-0.5,1-1,2l-3-1v1h-2v1h-3q-0.5,1-1,2h-1v-1l-5,2c1.441,3.424,2.24,6.434,1,12h-1q1,2.5,2,5h-2q0.5,1.5,1,3h-2v1h1a1.819,1.819,0,0,1-1,2c-0.28,1.661.949,1.762,1,2v4h-1q0.5,1,1,2h-1v1h1v9h1a1.744,1.744,0,0,1-1,2c-0.137,1.408.212-.174,1,1q-0.5,1-1,2c0.793,1.171,1.232-.4,1,1h-1c-0.362,1.988.6,1.283,1,2q-0.5,1.5-1,3c0.718,1.013,1.358-.368,1,1l-2,1q0.5,1,1,2v20c0.066,0.285,1.261.312,1,2h-1v8h1v1h-1v4h1q-0.5,1-1,2h1q-0.5,3-1,6h1c0.869,3.212.737,14.772,0,16v1h1v8h1v1h-1v3h-1c-0.059.581,0.951,2.025,1,4,0.134,5.375,0,11.675-1,13q0.5,1.5,1,3h1v1h-1c-0.092,4.363,1.461,3.757,0,6,0.175,1.423,1.486,2.42,1,5h-1v1s1.289,0.16,1,2c-0.219,1.4-.985-0.414-1,1h1v1c-0.771,1.186-1.2-.4-1,1h1v3h-1v1h1v5h1q-0.5,2.5-1,5h1v6h-1v1h1v2h1c0.157,1.4-.775-0.4-1,1q0.5,4.5,1,9h-1c-0.416,1.978.475,1.273,1,2v1h-1q0.5,6,1,12v9h-1v1h1v2h1q-0.5,1.5-1,3h1q-0.5,1-1,2h1v4h-1v1h1q-0.5,1-1,2h1v1c-0.231,1.395-1.006-.414-1,1h1v1h-1v1h1v1h-1c-0.732,3.128,1.1,9.1,1,10h-1v9h1q-0.5,1-1,2c0.007,1.95,1,2,1,2v3h-1c-0.114,1.326,1.509,1.631,1,4-0.3,1.383-.987-0.414-1,1h1v1h-1a1.6,1.6,0,0,0,1,2c0.277,1.855-1,2-1,2-0.444,2.416,1,3,1,3q-0.5,1.5-1,3a1.833,1.833,0,0,1,1,2h-1v1h1q-0.5,8-1,16h-1q0.5,1.5,1,3h-1c-0.894,3.748.1,6.719-2,9-1.139,1.139,0,.4-2,1,0-14.155,2.2-39.65,0-50V375h-1c-0.176-1.274,1.6-1.664,1-4h-1V361q0.5-1.5,1-3h-1q0.5-1.5,1-3h-1v-4h-1q0.5-1.5,1-3h-1v-3h-1q0.5-1.5,1-3h-1V330h-1c-0.236-1.394.3,0.228,1-1q-0.5-1-1-2h1v-1h-1v-6h-1v-6h-1q0.5-1.5,1-3h-1c-0.46-2.109,1.022-5.895,1-6h-1v-2h-1c-0.772-2.375,1.165-3.9,1-5h-1V280h-1c-0.179-1.4.715,0.385,1-1V268h1c0.17-1.28-1.6-1.66-1-4h1v-9h1V244h1c0.676-2.386-1.107-4.253-1-5h1V221h1v-1h-1q0.5-1,1-2h-1v-4h1c0.58-2.393-.969-2.6-1-4h1v-1h-1V197h-1q0.5-1.5,1-3h-1v-8h-1v-1a1.712,1.712,0,0,0,1-2h-1V169h-1q0.5-1,1-2h-1v-3h-1q0.5-1,1-2h-1q-1-17-2-34h-1v1h-2c-0.84.571-.365,2.04-2,2v-1h-1v1h-3q-0.5,1-1,2l-8,1q-0.5,1-1,2l-3-1v1h-2v1h-7q-0.5,1-1,2c-1.408-.133.238-0.316-1-1-2.053.145-2,1-2,1h-5v1a1.7,1.7,0,0,1-2-1l-8,1v1l-3-1q-0.5,1-1,2l-7,1v1h-3v1h-2v1h-1v-1c-1.831.1-2,1-2,1l-2-1v2l-2-1v1h-2v1l-2-1v1h-4q-0.5,1-1,2l-2-1q-0.5,1-1,2h-3v1h-1c-0.371-.208-0.308-1.843-2-1v1h-1v7c0.278,1.387.888-.41,1,1h-1v4s1.187-.109,1,2a108.551,108.551,0,0,0,1,30l-2-1v1c3.727,3.973,0,10.873,1,19h1l-2,3h1v3h1a1.633,1.633,0,0,1-1,2v1h1v1h-1a1.709,1.709,0,0,0,1,2c0.209,1.4-.679-0.377-1,1-0.633,2.716.825,4.557,1,6h-1v2h-1q0.5,2.5,1,5h-1c-0.213,1.4.76-.394,1,1q-0.5,2-1,4a1.742,1.742,0,0,1,1,2h-1v6h-1v1h1v1h-1v1h1v1h-1v1h2v1h-2v3h1q-0.5,1-1,2v1h1v1h-1v1h1c0.617,2.812-.793,2.6-1,3q0.5,1.5,1,3h-2q0.5,1.5,1,3h-1v1h1q0.5,1.5,1,3h-1v3h-1q0.5,1.5,1,3h-1v3h-1v1h1v2h1q-0.5,4.5-1,9h1c0.3,1.383-.793-0.4-1,1q0.5,1,1,2-0.5,1-1,2h1v8q-0.5,1-1,2h1v3h1q-0.5,1.5-1,3h-1a2.707,2.707,0,0,0,1,3v1h-1q0.5,1,1,2h-2v1h1v5h-1q0.5,1,1,2h-1v1h1v1h-1v1h1v1h-1v1h1v1h-1q0.5,1.5,1,3h-1q0.5,2.5,1,5h1q-0.5,1.5-1,3h1v3h1v1h-1v4h2c0.408,4.341.687,3.971,0,8,1.413-.054-0.393-0.758,1-1,0.86-1.889,1,2,1,2h-1v6h1v1h-1v3h2c-1.139,1.139,0,.4-2,1v4c0.214,1.4,1.085-.412,1,1h-1v3h-1v1h1v1c0.078,1.412-1.1-.411-1,1h1v3h1v1l-2,1q0.5,2,1,4h-1v2h-1a1.54,1.54,0,0,0,1,2v1h-1c-0.655,2.7.835,4.569,1,6h-1v2h-1q0.5,1,1,2h-1v4h-1q0.5,3,1,6h-1v1h1v1h-1v6h-1c-0.112.627,1.654,2.685,1,5h-1q-0.5,3.5-1,7h-2q-0.5-4.5-1-9h-1v-1h1v-1h-1v-5h-1q-0.5-3-1-6h-1v-2h-1v-6h-1c-0.37-1.365.752,0.392,1-1v-1h-1v-5h-1q0.5-1,1-2h-1v-5l-2-1q0.5-1.5,1-3h-1v-2h-1c-0.263-1.132,1.564-1.748,1-4h-1v-7h-1v-9l2-1s-1.631-4.2-1-6h1v-2h1q-0.5-1-1-2l2-1q-0.5-1-1-2h1v-3h1q1-7.5,2-15c0.55-1.9,1.99-7.586,1-11h-1v-7s-1.137.183-1-2c0.088-1.411,1.007.414,1-1h-1v-1q0.5-1.5,1-3h-1v-5h-1c-0.226-1.207,1.589-1.7,1-4h-1v-5h-1v-1h1v-1h-1v-4h-1c-0.231-1.212,1.639-1.7,1-4h-1v-3h-1c-1.11-3.353,1.029-8.151,1-10h-1c-0.473-2.421.907-2.563,1-4h-1q0.5-1.5,1-3c-0.113-1.441-1.469-1.579-1-4,0,0,1.144-.128,1-2-0.109-1.41-.985.414-1-1h1v-1h-1v-1h1v-8h1c0.471-2.255-2.018-5.456-1-9h1V238h1v-1h-1v-1h1v-7c0.337-1.373.886,0.41,1-1h-1v-1h1V212h1v-9h1v-1h-1a2.743,2.743,0,0,1,1-3q-0.5-1-1-2h1q0.5-4,1-8h-1v-1h1c0.744-3.22-1.409-5.145-1-7h1v-2h1v-1h-1q0.5-11.5,1-23l-8,1v1c-1.4.191,0.406-.851-1-1l-9,1v1h-2v1c-2.365.825-3.891-1.156-5-1v1h-6v1h-4v1l-10,1v1h-2v1l-7,1q-0.5,1-1,2h-3q-0.5,1-1,2l-5,1v1h-2v1l-6,1v1h-4v1h-3v1h-6c-4.916,1.564-14.572,6.137-17,4-1.135-.844-0.145.127-1-1a24.517,24.517,0,0,0,8-3l2,1v-1l4-1v-1l10-1v-1h3v-1h2v-1h4v-1h2v-1h4v-1l4-1v-1h2q0.5-1,1-2l2,1v-1h2q0.5-1,1-2h4v-1h3v-1h3v-1l2,1v-1h2v-1h4v-1h5v-1h3v-1l7-1v-1h2v-1l2,1v-1h4v-1h5c2.23-.79,4.18-2.415,7-3v-6h-1v-1c1.1-2.964,2.14-15.5,1-20h-1q0.5-1.5,1-3h-1c-0.969-3.42.414-9.094,1-11v-4h-1c-0.4-1.681.953-1.773,1-2q-0.5-2-1-4a1.711,1.711,0,0,0,1-2h-1c-0.975-3.372-.076-18.719,0-19V66h1l-1-2h1V63h1V62h1v1c3.392,4,.476,11.024,2,17h1l-1,2h1v1h-1v1h1V95s1.19-.109,1,2h-1l1,2h-1v10h-1v1l2,1v1h-1v7h1v3h1q-0.5,1-1,2,0.5,1,1,2h-1c-0.367,1.658.96,1.8,1,2q-0.5,1-1,2h1a2.685,2.685,0,0,1-1,3v1h1v1h-1v1h1q-0.5,3-1,6h1v1h4v-1l4-1q0.5-1,1-2h4v-1h3v-1h3v-1h3v-1h3v-1h5q0.5-1,1-2h3v-1h2v-1h3v-1h3v-1h4v-1l3,1v-1h2v-1l3,1v-1h3v-1h5q0.5-1,1-2h4v-1h4q0.5-1,1-2l2,1v-1h3v-1h2v-1h4l8-4v-2h-1q0.5-3,1-6c-0.953-4.325-1.219-12.009-1-20,0.053-1.921,1.057-3.486,1-4h-1V75h-1V68h-1l1-3h-1V62h-1q-1-6-2-12h1V49h-1V33h-1V32h1V27h1q-0.5-2-1-4h1q0.5-4.5,1-9C890.239,10.161,891.808,7.389,892,2Z"/>
  <path id="U" class="cls-1" d="M1014,285h3v1h1c0.33,2,.67,4,1,6h1v4h1c-0.33,1-.67,2-1,3h1v10h-1c0.67,1.666,1.33,3.333,2,5-0.19.42-1.48,0.092-1,3a1.708,1.708,0,0,1,1,2h-1v3h-1c0.33,2.666.67,5.334,1,8h-1c-0.13.451-1,9-1,9a1.845,1.845,0,0,1,1,2h-1v6h-1v10h-1c-0.21,1.232,1.63,1.689,1,4h-1v4h-1c0.33,1,.67,2,1,3v1h-1v6h1v1h-1c-0.29,1.384.74-.39,1,1v1h-1c0.33,1,.67,2,1,3a29.51,29.51,0,0,0-1,12h1c0.18,1.4-.71-0.383-1,1a2.612,2.612,0,0,0,1,3c0.13,0.78-1.21,1.706-1,4h1v1h-1v6h1v1h-1v7h-1c-0.33,1.376.77-.395,1,1-0.33.667-.67,1.333-1,2,0.33,1,.67,2,1,3h-1c0.33,1,.67,2,1,3a2.139,2.139,0,0,0-1,2h1v1h-1v4h-1v11h-1v11h-1c0.33,1,.67,2,1,3v1h-1v1h1c0.26,1.389-.74-0.391-1,1v1h1c-0.33,1-.67,2-1,3h1v1h-1v1h1c0.42,2.634-1,3-1,3a19.524,19.524,0,0,0,0,9c-0.67.333-1.33,0.667-2,1v4h-1c-0.67,2-1.33,4-2,6h-1v2h-1v2h-1c-0.33,1.666-.67,3.333-1,5-0.67-.333-1.33-0.667-2-1l-5,7-2-1v1h-2v1h-5v1h-1v-1l-2,1v-1h-5v-1h-3v-1l-5-1v-1c-1.139-1.139-.4,0-1-2-4.074-1.185-1.144-.4-3-3l-2-1v-2h-1v-2h-1v-2l-5-4c-1.777-2.727-5.357-21.271-4-27h1q-0.5-1.5-1-3h1c0.424-1.975-.494-1.28-1-2q0.5-1.5,1-3h-1v-1h1c1.24-6-.653-15.961,0-19h1V415h-1V401c-1.43-5.039-3.858-22.572-2-30h1q-0.5-1.5-1-3h1a1.827,1.827,0,0,0-1-2q0.5-1,1-2a1.6,1.6,0,0,1-1-2c0.2-1.4,1.163.4,1-1h-1v-4h1c0.161-1.4-.258.2-1-1q0.5-1,1-2h-1c-0.007-1.757,1-2,1-2,0.4-1.985-.508-1.271-1-2v-1h1c0.295-2.011-.564-1.243-1-2,0-1.414.252,0.2,1-1-0.013-1.414-.256.2-1-1q0.5-1.5,1-3l3-1v2c2.646,2.906,2.085,11.308,2,17v4h-1v1h1v5h-1c-0.64,2.371,1.056,2.641,1,4h-1v9c-0.27,1.388-.985-0.414-1,1s1.051-.413,1,1-0.626-.364-1,1v14h1q-0.5,1-1,2h1v16h1v9h1v1h-1v1h1v8h1v1h-1v1h1v5h1v4h1v1h-1c-0.222,1.4.684-.378,1,1q-0.5,1.5-1,3h1v2h1q1,7.5,2,15h1q0.5,2.5,1,5h1a8.46,8.46,0,0,1,2,4h2q0.5,3,1,6c2.762,0.723,2.237.279,3,3h1v3l5,1v1h2v1h1v-1c1.386-.283-0.378.682,1,1s-0.388-.729,1-1h1v1h5q0.5-2,1-4h2c0.261-2.242.086-2.649,1-4h1v-2c0.667-.333,1.33-0.667,2-1v-2c0.67-.333,1.33-0.667,2-1v-2h1c0.33-2.333.67-4.667,1-7h1v-3h1v-4h1v-5h1v-5h1c-0.33-1-.67-2-1-3h1V432c-0.06-.259-1.27-0.327-1-2h1v-7h-1v-1h1c0.4-2.566-.92-3.613-1-5h1c-0.18-1.4-.66.372-1-1V405s-1.25.061-1-2h1c0.12-1.409-.19.159-1-1,0.33-.667.67-1.333,1-2,0,0-1.3-.12-1-2h1v-1h-1v-1h1v-1h-1v-1c0.73-1.21,1.24.393,1-1h-1V379h1v-1h-1V368c0.33-1,.67-2,1-3h-1c-0.48-2.383,1.08-2.649,1-4-0.44-.688-1.52-0.113-1-3h1v-1h-1V345h1v-1h-1a2.209,2.209,0,0,1,1-2v-1h-1c0.33-1.667.67-3.334,1-5a2.846,2.846,0,0,1-1-3h1c1.38-5.393-.12-15.424,0-18,0.33-.667.67-1.333,1-2-0.83-1.142-1.07.413-1-1h1v-1h-1v-7s0.98,0.15,1-2h-1v-1h1v-2h1v-4Z"/>
  <path id="G" class="cls-1" d="M1113,283v2c-0.67-.333-1.33-0.667-2-1v1c-2.48,1.442-2.8,3.091-6,4-1.44,5.709-1.97,2.014-5,4v1c-2.02,1.817-.67,2.089-4,3-0.93,3.353-1.2,1.954-3,4h-1c-0.74,1.11.02,5.984-3,3v2h1c0.05,0.863-1.62,3.268-2,5h-2v3h-2v4h-2c-0.33,1-.67,2-1,3h-1c0.9,3.048,1.97,1.87-1,4v1h-1v-1h-1v4h-2v1h1c-0.2,1.7-1.79,1.531-2,2v2h-2c-0.33,2.333-.67,4.667-1,7-0.67.333-1.33,0.667-2,1v2h-1v4h-1v2h-1c0.33,0.667.67,1.333,1,2h-1v4h-1c-0.33,3-.67,6-1,9h1c-0.33.667-.67,1.333-1,2v1h1v1h-1v1h1v1h-1v1h1v4h1v3h1v2h1v3c0.67,0.333,1.33.667,2,1-0.33.667-.67,1.333-1,2,0.67,0.333,1.33.667,2,1-0.33.667-.67,1.333-1,2l3,2v2l3,2c0.33,1,.67,2,1,3h2v2h2v2l4,1v2c2.73,0.571,5.65,2.54,8,3l3-1,3,1v-1c3.51-.68,10.07-0.256,12,1,0.67-.333,1.33-0.667,2-1v-1h1v1h2v-2c6.05-.035,5.81-1.617,11-2,0.82-6.775,2.38-35.268,1-40v-6l-3-2v-1h1v-1h-1c0.33-.667.67-1.333,1-2h-1c-1.4-1.654-3.46-2.476-6-3v2l-6,1v1h-8v1l-3-1v1h-6v1l-3-1a10.582,10.582,0,0,1-1-4c0.67-.333,1.33-0.667,2-1v-1h3v-1h1c0.95,0.7-.36,1.376,1,1v-1h3v-1l3,1v-1c0.67,0.333,1.33.667,2,1v-1h3v-1l13-3a8.264,8.264,0,0,0,5,3c0.59,5.231,3.85,6.166,5,11h2c0.05,3.635-1.31,14.159,0,19h1v1h-1v1h1v6h1c-0.33.667-.67,1.333-1,2h1a1.751,1.751,0,0,1-1,2c0.33,0.667.67,1.333,1,2h-1v1h1c1.17,3.212-.29,2.9,0,4h1v10h1c0.18,1.277-1.7,1.674-1,4h1v2h1c-0.33,1-.67,2-1,3,0.33,0.667.67,1.333,1,2h-1v1h1v4c-0.06.258-1.31,0.318-1,2h1v6h-1v1c-0.16,2.16,1,2,1,2-0.33,2.333-.67,4.667-1,7h1c-0.33,2-.67,4-1,6h1c-0.33,2.666-.67,5.334-1,8h-1c0.33,1,.67,2,1,3h-1v3h-1v6h-1v9h-1c0.33,1.333.67,2.667,1,4h-1c0.33,1,.67,2,1,3v1h-1c0.33,1,.67,2,1,3h-1q-0.495,9.5-1,19h-1v2h-1v3h-1v-1h-1c0.33-.667.67-1.333,1-2h-1V476h-1v-6h-1v-1h1v-3h-1c0.33-1,.67-2,1-3h-1v-5h-1v-1h1v-1h-1v-5h-1v-1h1v-3h-1c0.33-.667.67-1.333,1-2h-1v-1h1c0.52-2.4-1.1-4.283-1-5h1v-5c-0.07-.287-1.31-0.3-1-2h1c0.61-2.525-1.05-5.531-1-6h1c0.3-1.985-.64-1.287-1-2v-1h1v-5h-1v2h-3v2h-4c-1.4.217,0.41,1.046-1,1v-1h-2v2l-8,1-3-1v1l-6-1v1h-1v-1c-0.67.333-1.33,0.667-2,1v-1h-3v-1h-1v1h-1v-1l-4,1v-2l-3,1v-1c-3.19-1.3-6.05-2.28-7-6h-2v-2h-2c-0.64-2.739-1.31-2.276-2-5h-2c-0.33-2.333-.67-4.667-1-7h-2v-1h1v-1h-1v-4h-1v-3h-1v-8h-1v-5h-1c0.33-1,.67-2,1-3h-1c0.33-1,.67-2,1-3,0,0-1.38-.648-1-3h1c0.23-1.989-1.23-3.708-2-5h-1V351h1c0.1-1.411-.8.4-1-1,0.33-1.667.67-3.334,1-5h-1V334h1v-5h1v-3h1v-3h1c0.91-1.52.83-2.439,1-5h2c0.33-2,.67-4,1-6h2c0.26-2.282.14-2.591,1-4h1v-3h1v-2h1v-2h1v-2c0.67-.333,1.33-0.667,2-1v-2l3-2v-2h1c0.33-.667.67-1.333,1-2h2c1.33-1.667,2.67-3.334,4-5l3-1v-2h2c0.7-1.332,1.5-1.287,2-2v-2h1v1c1.08-1.131.44,0.008,1-2,4.63-.516,11.36-5.046,17-3v1h2v1l3,1c-0.33,1.666-.67,3.333-1,5h-1v-1c-1.7.2-1.53,1.794-2,2h-2Z"/>
  <path id="U-2" data-name="U" class="cls-1" d="M1237,432c-0.06,4.13-2.47,6.811-1,9h-1c-1.14,1.139,0,.4-2,1-0.33,1.333-.67,2.667-1,4h-2c-1.66,2.7-4,2.565-5,6-7.62.116-10.03,0.833-15,1v-1c-1.4-.213.39,0.762-1,1l-8-1v-1h-2v-1l-3-1c-0.33-1-.67-2-1-3h-1v-2h-1v-3h-1v-3h-1v-3h-1v-3h-1q-0.495-8.5-1-17c-6.81-22.87-3.96-47.1-4-73l5-1c0.33,1,.67,2,1,3h1c0.96,1.913-.8,2.99-1,4,1.66,4.322-.37,10.924,1,16h1v1h-1v1h1c0.36,1.66-.96,1.791-1,2v1h1v7h1v1h-1v7h1v6h1a1.733,1.733,0,0,1-1,2c-0.39,2.33,1,3,1,3v1h-1v1h1c0.18,1.258-1.56,1.671-1,4h1v8c0.1,2.362.97,2.866,1,4h-1v1h1v1c-0.35.7-1.29,0.02-1,2h1c-0.33,1-.67,2-1,3h1v7q3.495,5.5,7,11h4v1h1v-1h5v1l5-1c2.27-4.022,7-6.654,9-11v-6c0.67-.333,1.33-0.667,2-1,0.33-3.333.67-6.667,1-10,3.19-10.085,2.72-23.147,5-32V363h1c0.23-1.395-.33.244-1-1,0.33-.667.67-1.333,1-2h-1v-5h1c-0.33-.667-0.67-1.333-1-2h1V342h-1v-1h1v-4h1v-1h-1c0.33-1,.67-2,1-3,1.14,1.139.4,0,1,2h1c-0.01,1.093-1.75,3.347-1,6h1v6h-1v1h1v20h1c-0.33,1-.67,2-1,3,0.33,0.667.67,1.333,1,2h-1v1c0.22,1.4.97-.414,1,1h-1v1h1v4h-1v1h1c-0.33.667-.67,1.333-1,2h1v10c-0.3,1.381-1.22-.4-1,1h1v4h1a1.662,1.662,0,0,1-1,2v1h1c-0.33.667-.67,1.333-1,2h1v1a1.591,1.591,0,0,0-1,2h1v1c-0.66,1.253-1.25-.391-1,1h1c-0.33,2-.67,4-1,6h1c-0.33.667-.67,1.333-1,2-0.19,2.243,1.12,3.276,1,4h-1c-0.33,2-.67,4-1,6h1v4h-1c0.33,0.667.67,1.333,1,2h-2Z"/>
  <path id="E" class="cls-1" d="M1331,229v2c-1.67.333-3.33,0.667-5,1v1h-2v1l-3,1v-1h-1c-0.33.667-.67,1.333-1,2-4.72,3.02-11.89,6.609-19,7v2c-8.29-.087-11.21,3.159-18,4,0.84,1.135-.13.145,1,1-0.78,2.249-.98,8.954,0,13,0,0,1.19-.131,1,2h-1v1h1c-0.33.667-.67,1.333-1,2,0.33,0.667.67,1.333,1,2a2.362,2.362,0,0,0-1,2,2.889,2.889,0,0,1,1,3h-1v11h-1c0.33,3,.67,6,1,9h2c-2.39,3.523-1.43,1.35-1,7h2c-1.16,3.331-.79,4.733,0,9h-2a12.666,12.666,0,0,0,2,2c-0.33.667-.67,1.333-1,2,0.12,0.3,1.42.118,1,3h-1v1h1c0.29,1.659-.95,1.771-1,2a1.688,1.688,0,0,0,1,2v1h-1c-0.23,1.4.77-.395,1,1s-0.76-.393-1,1c-0.57,3.264,1.49.647,0,5h1v-1l3,1c0.33-.667.67-1.333,1-2h1v1c1.4-.164-0.12-0.141,1-1h1v1h4v1h1v-1c1.4,0.22-.37.642,1,1h5v4l-3,1c-0.33.667-.67,1.333-1,2h-2v1h-5v1h-1a1.537,1.537,0,0,0-2-1v1l-6,1c0.33,1,.67,2,1,3h-1v1h1v1c-0.67.333-1.33,0.667-2,1,0.33,2,.67,4,1,6h-2c0.33,0.667.67,1.333,1,2a2.582,2.582,0,0,0-1,3h1c-0.33.667-.67,1.333-1,2h1v1h-1c0.33,0.667.67,1.333,1,2h-1v1h1v9h1c-0.33,1-.67,2-1,3h1v7h1v1h-1c-0.94,5.2,1.05,5.676,0,10h-1c0.67,1,1.33,2,2,3h-1v4h1v1h-1c-0.47,2.91.49,2.24,1,3a48.086,48.086,0,0,1-2,8h1v-1l3,1v-1h6v-1h1v1h1v-1h6v-1h2v-1h1v1h4v-1c2.34-.574,2.72,1.167,4,1v-1h5v-1l6,1v-1h1v1h3v1l9,1a9.79,9.79,0,0,0,2,2c-0.33,1-.67,2-1,3-2.34.582-2.37,0.91-4,2v1c-0.67-.333-1.33-0.667-2-1v1h-3v1h-8v1h-1v-1l-5,1v-1h-4v1h-6s0.22,1.28-2,1c-1.4-.177.39-1.242-1-1v1l-15-1v-1h-6v1l-8-1v-2h-1a1.662,1.662,0,0,1,1-2c0.31-1.715-.93-1.7-1-2V404h-1v-1h1c-0.33-1-.67-2-1-3-0.15-2.013,1-2,1-2a2.812,2.812,0,0,0-1-3c0.33-1,.67-2,1-3-0.33-.667-0.67-1.333-1-2h1v-3h1a1.667,1.667,0,0,0-1-2v-1h1c0.29-1.385-.76.393-1-1s0.69,0.379,1-1v-1h-1c0.33-.667.67-1.333,1-2h-1v-1h1V367h-1v-7h-1v-1h1v-1h-1v-2h1q-1.005-9-2-18h-1c-0.26-1.39.71,0.384,1-1,0.35-1.68-.95-1.761-1-2,0.33-1,.67-2,1-3h-1V321c-0.2-1.4-1.01.414-1-1h1V308c0.01-.022,1.19-0.353,1-3h-1v-1h1v-6h1c-0.33-1-.67-2-1-3,0.67-.333,1.33-0.667,2-1v-8h1v-9h1v-9h1v-6h1v-8c0.36-1.367.85,0.407,1-1h-1v-1h1v-2h1v-5q4.995-3,10-6h3c0.33-.667.67-1.333,1-2h2v-1h4c0.33-.667.67-1.333,1-2l6-1v-1h2v-1h4v-1h2c0.33-.667.67-1.333,1-2h3v-1h2v-1l9-1c0.33-.667.67-1.333,1-2h3a56.45,56.45,0,0,1,22-5v1h-1v1q-4.005,2.5-8,5h-4v1Z"/>
  <path id="T" class="cls-1" d="M1472,258v7c-3.75.339-6.08,2.006-9,3h-4v1h-4v1l-3-1v1h-6v1h-2v1h-1v-1h-6c-6.3,1.8-8.99,2.116-16,1v2h-2v-2c-1.89,1.2.71,0.563-1,2h-1v-1h-4c0.93,2.761-.27,8.226,1,14h1v1h-1c-0.96,3.483-3.12,6.018-2,11h1c-0.33,1.333-.67,2.667-1,4h1c1.3,5.27.42,17.241,0,18v1h1v6h-1v1h1c-0.33,1-.67,2-1,3,0.67,0.333,1.33.667,2,1v1h-1c0.33,1,.67,2,1,3h-1c-0.33,1-.67,2-1,3h1v4h-1c0.33,0.667.67,1.333,1,2h-1v1c0.56,0.744,1.39.013,1,2,0,0-1.07.176-1,2,0.33,1,.67,2,1,3h-1v12s-1.33.353-1,3h1a1.8,1.8,0,0,1-1,2c0.33,0.667.67,1.333,1,2h-1v1h1v1h-1v1h1c-0.33,1-.67,2-1,3h1v1h-1v1c0.33,0.667.67,1.333,1,2h-1c-0.41,2.276,1.09,4.476,1,5h-1v2h-1v1h1a1.724,1.724,0,0,1-1,2c0.33,0.667.67,1.333,1,2,0.26,2.542-1,3-1,3,0.33,1,.67,2,1,3h-1q-0.495,7-1,14c0.33,0.667.67,1.333,1,2h-1v2h-1c-0.71,2.244,1.29,2.87,1,4-0.67.333-1.33,0.667-2,1v1h1c0.49,3.425-1.3,9.573-2,12v15h-1c-0.19,1.4.31-.232,1,1v1h-1c-0.19,1.4.26-.2,1,1-0.33,1-.67,2-1,3h-2v-2l-3,1v-2c-2.48-2.671-1.02-7.627-2-12h-1v-1h1V426h1v-1h-1c0.33-3,.67-6,1-9h-1v-4h1c-0.33-.667-0.67-1.333-1-2q0.495-6.5,1-13h1V386h1v-7h1v-1h-1c0.49-3.3,2.4-11.237,1-16h-1v-6h-1c0.33-2,.67-4,1-6h-1v-4h1c-0.33-1.333-.67-2.667-1-4,0.33-.667.67-1.333,1-2h-1v-6h1c-0.33-.667-0.67-1.333-1-2h1c0.3-1.79-1-2-1-2,0.33-1,.67-2,1-3h-1v-1h1v-4h1v-1h-1c0.33-3.666.67-7.334,1-11,0.67-.333,1.33-0.667,2-1v-1h-1c-0.6-4,1.23-6.588,2-9v-8c0.67-.333,1.33-0.667,2-1v-6h1c-0.33-.667-0.67-1.333-1-2,0.05-1.413.79,0.4,1-1s-0.3.229-1-1v-1h1c0.38-1.966-.65-1.324-1-2,0.07-1.122.84-1.463,1-4h-1c-0.33.667-.67,1.333-1,2h-1v-1l-4,1a2.272,2.272,0,0,0-2-1l-3,1a1.8,1.8,0,0,0-2-1v1h-1v-1c-1.47.164-1.59,1.107-4,1v-1h-1v2l-3-1v1h-1v-1c-1.93-.2-2,1-2,1-0.67-.333-1.33-0.667-2-1v2h-1v-1l-10,1v1h-1v-2a2,2,0,0,0-1,2c-1.36.372,0.12-.336-1-1-0.67.333-1.33,0.667-2,1v-1h-1v1h-1v-1l-3,1c-1.65-1.327,1.08-1.83-3-3v-4c1.18-.6,1.52-1.712,2-2h2v-1l13-1v-1h4v-1h1v1h1v-1h5v-1h1v1h21c4.42-1.313,12.97-3.421,15-4h6v-1h3v-1h7v-1h11v-1h9v1c0.67-.333,1.33-0.667,2-1Z"/>
</svg>
