<svg xmlns="http://www.w3.org/2000/svg" viewBox="0 0 1441 882">
  <path d="M1425 18q4.005 2 8 4c.33 1 .67 2 1 3 .67.333 1.33.667 2 1v6c-2.11 1.444-1.78 2.146-2 6a15.092 15.092 0 0 1 7 11c-1.17.929-2.05 3.343-3 4l-6 2c-.33 1-.67 2-1 3l-3 1c-.67 1-1.33 2-2 3l-4 1c-.33.667-.67 1.333-1 2h-3c-.33.667-.67 1.333-1 2h-3v1h-2c-.33.667-.67 1.333-1 2h-2v1h-2v1c-1.38.911-1.75.7-4 1v2c-3.26.7-4.97 2.127-7 4-.33.667-.67 1.333-1 2l-5 1c.33.667.67 1.333 1 2h-3c-.67 1-1.33 2-2 3h-2c-.33.667-.67 1.333-1 2h-1c-.33.667-.67 1.333-1 2h-2v1a8.038 8.038 0 0 1-4 2c-.81 3.287-3.13 4.721-5 7h-1v2c-.67.333-1.33.667-2 1v3l-3 1c.33.667.67 1.333 1 2-1.33 1-2.67 2-4 3v2h-1v2h-1v2h-1v2h-1a8.034 8.034 0 0 0-2 4h-2c-.76 3.486-6.11 5.371-4 8h-2c-.36 3.091-.7 3.137-2 5h-1c-.33 1.666-.67 3.334-1 5h-2c-.71 3.559-2.34 6.068-4 9h-1c-.33 1.333-.67 2.667-1 4h-1a13.384 13.384 0 0 0-3 6l-3 1c.33.667.67 1.333 1 2h-1c-1.14 1.139 0 .4-2 1v2h-2v3h-2c-1.43 2.8-4.69 8.144-7 10v3h-2c-.33 2-.67 4-1 6h-2l-3 9c-.67.333-1.33.667-2 1v2c-1.33 1-2.67 2-4 3 .33.667.67 1.333 1 2h-2v3h-2v2h-2c-.7 1.269-1.52 1.314-2 2v2l-3 1v1c-.67.333-1.33.667-2 1v2c-.67.333-1.33.667-2 1v2c-.67.333-1.33.667-2 1v3h-2l-3 9h-2c-.33 1.667-.67 3.333-1 5l-3 2c-.33 1.667-.67 3.333-1 5h-2c-.72 1.451-1.38 1.178-2 2v2c-.67-.333-1.33-.667-2-1 .03 1.414-.24.317 1 1-1.13 1.17.04.458-2 1-.86 3.655-3.27 5.257-7 6v2h-3v1c-1.14 1.139-.4 0-1 2h-3c-.68 2.927-1.11 3.274-4 4-1.05 4.062-.44 1.246-3 3v1l-3 1c-.33 1.667-.67 3.333-1 5-1.8.945-1.57 1.385-4 2v2h-2c-.68 2.927-1.11 3.274-4 4-.64 2.739-1.31 2.276-2 5h-2v2h-2c-1.97 3-2.83.941-4 5l-3-1c-.33 2.108.06 2.811-1 4-.67-.333-1.33-.667-2-1-.33 1-.67 2-1 3-.67-.333-1.33-.667-2-1-.33.667-.67 1.333-1 2l-4 1c-.67 1-1.33 2-2 3h-2c-.33.667-.67 1.333-1 2h-3c-.67 1-1.33 2-2 3-3.6 2.4-5.53.561-7 6-3.84.665-6.6 2.833-9 5-.33.667-.67 1.333-1 2h-3c-.67 1-1.33 2-2 3h-2c-.33.667-.67 1.333-1 2-.67-.333-1.33-.667-2-1-.33.667-.67 1.333-1 2-.67-.333-1.33-.667-2-1-.33.667-.67 1.333-1 2h-2v1h-2v1l-7 1c-.33.667-.67 1.333-1 2h-3v1h-2v1l-9 2v1h-2v1l-9 2v1h-2v1c-.67-.333-1.33-.667-2-1v1h-3v1h-3v1h-5v1h-2v1h-4v1l-4 1v1l-10 2v1h-3v1c-.67-.333-1.33-.667-2-1v1l-3 1c-.74-.588.33-1.478-1-1v1h-2v1h-4v1h-2v1h-5v1h-2v1h-3v1l-3-1v1h-3c-.33.667-.67 1.333-1 2l-3-1c-.67 1-1.33 2-2 3l-9 1v2a17.383 17.383 0 0 0-4 1v-2l-3 1v1a1.647 1.647 0 0 1-2-1c-1.78-.318-7.03 1.281-8 2-2.2-.4.33-1.217-1-2-1.95.165-1.6 1.931-2 2l-3-1v1c-1.67-.667-3.33-1.333-5-2v2c-.67-.333-1.33-.667-2-1v1c-1.62-.334-.36-2.536-2-2v2c-1.2.191-1.72-1.412-4-1v1h-1v-1c-2.4-.431-4.29 1.09-5 1v-1h-5v-1l-2 1-1-2c-1.106-.261-6.483 2.225-11 1v-1l-6 1v-1l-3 1v-1l-13 1 1-2h-1c-3.453 3.778-3.86-.1-10 1v1l-4-1v-1c-1.372-.345.375.669-1 1l-2-1v1h-6v-1l-6 1v1c-2.12.39.1-1.748-2-2v1l-3 1v-1h-1v1h-2v-1h-3v1l-2-1v1c-.848.185-3.535-1.05-7-1-2.446.035-2.819.974-4 1v-1h-1v1h-1v-1c-2.389-.492-2.575.768-4 1v-1h-2v-1l-2 1v-1h-1v1c-1.734.406-1.694-.925-2-1h-5v1h-1v-1c-2.561-.544-3.59.8-5 1l-1-2s-8.419 1.665-11 1v-1a2.611 2.611 0 0 0-3 1c-1.857.29-2-1-2-1h-1v1l-2-1v1h-1v-1h-16v-1l-3 1h-1v-1h-4v1l-5-2 1-2h-1v-1h3v-1h6v-1l3 1v-1h4v1c1.4.224-.384-.711 1-1h17l6-1h1v1h1v-1h13v-1l2 1c2.624.282 3-1 3-1 2.511-.651 3.64.814 5 1v-1h12v-1l3 1h5v-1h1v1a1.714 1.714 0 0 0 2-1h1v1h1v-1l3 1v-1h3v-1h19c6.109-1.272 21.485.364 28-1h17v1c3.709 1.026 8.79-.888 11-1v1h1v-1c1.74-.267 2 1 2 1 .67-.333 1.33-.667 2-1v1h5v-1h1v1h7v-1h1v1h4c9.63.132 18.86.08 26-2h8v-1h5v-1h3v-1c.67.333 1.33.667 2 1v-1h3v-1h1v1l6-1v-1l14-1v-1l7-1v-1h4v-1h3v-1h4v-1l11-2v-1h2v-1h4v-1h2v-1l5-1c.33-.667.67-1.333 1-2h3v-1l6-2v-1h2v-1l9-3c.33-.667.67-1.333 1-2l4-1c.67-1 1.33-2 2-3h2c.67-1 1.33-2 2-3h2c.33-.667.67-1.333 1-2h2c.33-.667.67-1.333 1-2l6-5c.33-1 .67-2 1-3 1.67-1.333 3.33-2.667 5-4 .33-.667.67-1.333 1-2h2c.67-1 1.33-2 2-3h3c.67-1 1.33-2 2-3l4-1v-1a8.254 8.254 0 0 1 4-2v-2h2q-1.005-6-2-12h-1v-3h-1v-4h-1c-.69-1.979-.38-3.448-1-5-2.29.976-4.53 1.8-7 3v1l-9 2v1l-9 2v1h-2v1l-7 1c-5.67 2.238-10.58 5.48-18 6-.33-1-.67-2-1-3h2c1.67-2 3.33-4 5-6h1v-2q3.495-3 7-6v-2c1.67-1.333 3.33-2.667 5-4v-1c.67-.333 1.33-.667 2-1v-2c.67-.333 1.33-.667 2-1 1.33-2 2.67-4 4-6-5.01-.384-7.57-3.156-11-5h-2v-1h-2v-1h-2v-1h-2v-1h-2v-1h-2v-1h-2v-1h-2v-1l-6-2v-1h-3v-1c-1.91-.941-10.31-3.845-11-5v-2c4.18-.726 9.26-2.733 13-4q12.495-2.5 25-5c-.31-3.951-1.96-6.95-3-10v-4h-1v-4h-1v-4h-1v-4c-2.84-8.345-5.65-17.266-6-28h3c1.77 2.713 4.36 3.107 7 5 1.33 1.667 2.67 3.333 4 5h2c1.67 2 3.33 4 5 6h2c1.67 2 3.33 4 5 6h2c.67 1 1.33 2 2 3 1.33 1 2.67 2 4 3v1h2v1c2.28 1.911 3.73 4.106 7 5 .33-1 .67-2 1-3h1c.33-1 .67-2 1-3 .67-.333 1.33-.667 2-1v-2c.67-.333 1.33-.667 2-1v-2l3-2v-2l3-2v-2c.67-.333 1.33-.667 2-1v-2l3-2v-2c.67-.333 1.33-.667 2-1v-2l3-2v-2c.67-.333 1.33-.667 2-1v-2c.67-.333 1.33-.667 2-1 .33-1.333.67-2.667 1-4 .67-.333 1.33-.667 2-1v-2l3-2v-2c1.33-1 2.67-2 4-3 .33-1 .67-2 1-3h2q.495 14 1 28h1v35c1.13.844.15-.127 1 1 10.75.764 19.32 6.9 29 9 1.67-2 3.33-4 5-6h2c.33-.667.67-1.333 1-2h2c-.33-.667-.67-1.333-1-2h1v-1h2a19.06 19.06 0 0 0 5-8h2c.95-4.362 3.34-4.349 4-9h2v-3h2c.18-2.28.15-2.623 1-4h1v-3c.67-.333 1.33-.667 2-1 1.8-2.55-1.1-1.9 3-3 .68-3.756 2.4-6.12 6-7v-2c3.08-.792 3.38-1.883 4-5 2.52-.612 1.65-.534 3-2h1v-2h1c.33-1 .67-2 1-3h2a8.373 8.373 0 0 1 2-4h1v-3c.67-.333 1.33-.667 2-1a12.455 12.455 0 0 0 3-7h2v-3h2c.84-4.045 3.06-4.98 4-9h2c.95-3.617 3.88-5.448 6-8h1v-2c.67-.333 1.33-.667 2-1a19.672 19.672 0 0 0 3-7h2c.76-3.16 2.23-3.65 3-7h2c.82-3.261 3.11-4.756 5-7h1v-2c.67-.333 1.33-.667 2-1v-1h2c.33-.667.67-1.333 1-2a13.451 13.451 0 0 1 7-4v-2h2c.67-1 1.33-2 2-3h2l3-4h2l3-4h2l3-4h2c.67-1 1.33-2 2-3l4-1v-1c3.25-1.839 5.62-3.512 10-4v-2c4.92-1.126 8.09-5.977 12-8h4v-1c-1.91-1.256-1.66-1.014-2-4l-4-1c.33-.667.67-1.333 1-2h-1c-.33-1.333-.67-2.667-1-4h1c.33-2 .67-4 1-6l-3-1c-2.6-2.848-3.16-.7-7-2v-1h-3v-1c-.67.333-1.33.667-2 1v-1a1.654 1.654 0 0 0-2 1c-.67-.333-1.33-.667-2-1 0 0-.64 1.421-3 1v-1c-.8-.091-2.54 1.506-5 1v-1h-1v1a1.759 1.759 0 0 1-2-1h-1v1l-4-1a2.866 2.866 0 0 1-3 1v-1h-8v-1l-4 1a1.764 1.764 0 0 0-2-1s-.73 1.458-3 1v-1c-.67.333-1.33.667-2 1v-1h-3v1c-.67-.333-1.33-.667-2-1-1.74-.068-2 1-2 1-1.67.31-1.76-.948-2-1a2.85 2.85 0 0 0-3 1l-3-1v1h-5v-1a1.706 1.706 0 0 0-2 1c-.67-.333-1.33-.667-2-1v1h-13s-.4-1.5-3-1v1c-.67-.333-1.33-.667-2-1v1a1.655 1.655 0 0 1-2-1h-1v1l-3-1s-.17 1.248-2 1v-1h-1v1h-5v-1l-3 1v-1c-3.94-.917-11.02-.913-14 0v1h-5s-.06-2.055-1-1v2l6 2v1h2c.33.667.67 1.333 1 2l4 1c.33.667.67 1.333 1 2l6 2c.33.667.67 1.333 1 2h2v1h2c.33.667.67 1.333 1 2h2v1h2c.33.667.67 1.333 1 2l4 1c.33.667.67 1.333 1 2l4 1c.33.667.67 1.333 1 2h2c.33.667.67 1.333 1 2l3 1c-.33 1-.67 2-1 3h-1v-1c-1.68-.361-1.76.949-2 1h-11v1l-36 2v1c2.11 1.885 2.42 4.6 4 7 .67.333 1.33.667 2 1 .33 1.333.67 2.667 1 4 .67.333 1.33.667 2 1 .33 1.333.67 2.667 1 4 .67.333 1.33.667 2 1 .33 1.333.67 2.667 1 4 .67.333 1.33.667 2 1v2h1v2h1v2h1v2c.67.333 1.33.667 2 1 .67 2 1.33 4 2 6 .67.333 1.33.667 2 1v2c.67.333 1.33.667 2 1a26.938 26.938 0 0 1 4 9 7.7 7.7 0 0 1-4-2v-1h-2c-.33-.667-.67-1.333-1-2h-2c-.33-.667-.67-1.333-1-2h-2c-.33-.667-.67-1.333-1-2l-4-1c-.33-.667-.67-1.333-1-2l-4-1c-.33-.667-.67-1.333-1-2l-4-1c-.33-.667-.67-1.333-1-2l-4-1c-.33-.667-.67-1.333-1-2l-4-1c-.33-.667-.67-1.333-1-2h-2c-.33-.667-.67-1.333-1-2h-2c-.33-.667-.67-1.333-1-2l-9-5v2c-2.17 2.476-.86 6.252-2 10h-1v6h-1v5h-1v4c-1.31 3.875-2.81 5.517-3 11-5.26-1.564-3.79-3.888-6-8h-1v-2h-1v-2c-.67-.333-1.33-.667-2-1v-2h-1v-2h-1v-2h-1v-2c-.67-.333-1.33-.667-2-1v-2c-.67-.333-1.33-.667-2-1-.33-1.333-.67-2.667-1-4-.67-.333-1.33-.667-2-1-.67-2-1.33-4-2-6-.67-.333-1.33-.667-2-1-.67-2-1.33-4-2-6-.67-.333-1.33-.667-2-1v-2h-1v-2h-1v-2h-1v-2c-.67-.333-1.33-.667-2-1-.33-1.333-.67-2.667-1-4-.67-.333-1.33-.667-2-1v-2h-1c-.33-1-.67-2-1-3l-51 5c-.84-1.135.13-.145-1-1v-3a21.23 21.23 0 0 0 8-3c.33-.667.67-1.333 1-2h2c.33-.667.67-1.333 1-2h2c.67-1 1.33-2 2-3h2v-1l3-1c.33-.667.67-1.333 1-2h2c.67-1 1.33-2 2-3h2c.33-.667.67-1.333 1-2h2c.33-.667.67-1.333 1-2l3-1c.67-1 1.33-2 2-3 2.26-1.607 4.32-1.907 6-4-2.04-.782-5.2-2.35-8-2v1h-1v-1h-2v1c-.31.045-3.6-1.643-6-1v1c-2.46.7-3.76-1.055-5-1v1l-16 2v-1h-1v1c-.67-.333-1.33-.667-2-1-.67.333-1.33.667-2 1v-1h-3v1h-1v-1c-.67.333-1.33.667-2 1v-1h-3v-1l-3 1v-1h-2v-1l-5 1v-1a2.585 2.585 0 0 0-3 1l-3-1c-.33.667-.67 1.333-1 2l-4-1v1h-1v-1l-7 1v1c-.67-.333-1.33-.667-2-1v1h-3v1h-1v-1h-4s0 1.235-2 1v-1c-.98-.155-5 1.991-5 2v-2l-4 1v-1h-1a1.58 1.58 0 0 1-2 1v-1c-1.53-.6-5.49-1.738-8-1v1h-5v1c-.67-.333-1.33-.667-2-1-.33.667-.67 1.333-1 2h-6v2c-2.25-.844-7.36-1.031-11 0v1c-1.4.179.21-.263-1-1-.67.333-1.33.667-2 1v-1h-1v1l-5 1v-2h-1v1l-4-1v1h-1c-.33-.667-.67-1.333-1-2-2.3-.649-2.47 1.5-4 2v-2h-1v1h-6v-1h-1v1h-2v1h-1v-1c-.67.333-1.33.667-2 1a2.116 2.116 0 0 0-2-1v1h-2v1l-3-1v1c-.67-.333-1.33-.667-2-1v1l-8 1v-1h-11c-.18-.07-.5-1.7-2-2v1l-6-1v1h-1v-1h-4s.05 1.084-2 1c-1.413-.058.411-1.091-1-1v1h-4v1c-1.369.354.4-.782-1-1h-1v1l-3-1-1 2-5-1v1h-5v1c-.4.07-2.819-1.327-5-1v1c-1.105.183-1.807-1.251-4-1v1h-1v-1h-4v-1h-1v1h-1l-1-2h-5v-1l-4 1h-5v-1a2.548 2.548 0 0 0-3 1l-3-1-1 2-2-1-1 2c-1.475.419-1.419-1.86-2-2h-1v1c-2.857.679-5.443-.533-7-1v2h-1v-1c-3.589-.831-7.49-.035-10-1v1h1c1.889.859-2 1-2 1v-1l-13-1c-1.407.143.409.88-1 1l-1-2h-1v1l-6-1v2a1.894 1.894 0 0 1-1-2h-1v1h-4v-1c-1.545-.313-1.325 1.792-2 2h-1v-1l-3 1c-.486-.217-.03-1.366-3-1v1c-.212.025-3.632-1.314-6-1l-3 1v-1l-3 1v-1l-2 1v-1h-8v-1h-1v1l-2-1v1h-1v-1h-5v-1h-1v1h-3v1l-2-1h-4v1c-1.167.167-1.758-1.283-4-1v1c-.521.063-2.054-.968-4-1h-4v1l-2-1h-14v1h-1v-1h-9v-1h-8v-1c-1.374-.333.4.779-1 1s.364-.628-1-1h-4v-1h-1v1h-11v1h-1v-1h-1c-.424.163-.068 1.23-3 1v-1h-1v1h-4v1h-1v-1l-6 1v1c3.294 2.164 9.857 15.051 10 21l-21-6v-1l-11-4c.2 18.858-4.778 32.494-5 51-4.591-1.329-3.963-3.391-6-7h-1v-2h-1v-2h-1v-3h-1v-2h-1v-2h-1v-2h-1v-2h-1v-2l-2-1-7-16h-2c-1.658 2.474-3.551 2.29-6 4l-2 3h-2l-6 7h-2l-2 3h-2l-2 3h-2l-2 3h-2l-3 4h-2l-4 5h-2l-2 3c-2.877 2.01-5.17 1.947-7 5l-2-1v1c-1.621-1.428-.647-.317-1-3h1v-3h1v-2h1v-2h1v-2h1v-2h1v-2h1l1-4h1v-3h1l2-6h1v-2h1v-2h1v-2h1v-2h1v-2h1v-2h1v-2h1v-2c1.733-3.245 4.009-5.7 5-10-6.445-.039-11.178-1.578-16-3-3.418-1.008-8.109 1.043-10 1v-1h-3v-1c-1.392-.248.38.69-1 1a2.681 2.681 0 0 1-3-1l-2 1v-1h-3v-1h-1l-1 2h-1v-1h-1v1h-1v-1h-1v1c-2.51.609-3.626-.711-5-1l-3 4h-1v-1a2.7 2.7 0 0 0-3 1l-2-1v1l-6-1v1h-3v1h-1v-1c-1.753-.256-2 1-2 1-1.665.271-1.752-.946-2-1l-3 1c-.909-.459-.387-1.787-2-2-.763.562-.661 1.274-2 2v-2l-2 1v-1h-2v-1l-3-1v1h-2v1h-1v-2l-3 1v-1h-1v1h-1a2.312 2.312 0 0 0-2-1v1h-1v-1h-1v1h-1v-1h-1c-.455.237-.528 1.54-2 2v-2l-8 3c-1.2.23-1.708-1.576-4-1v1h-5v1c-.34.059-2.874-1.274-5-1v1h-1v-1h-3v-1l-2 1v-1h-3v-1h-4v-1h-6v-1h-6v1h-1v-1a2.646 2.646 0 0 0-3 1h-1v-1a1.747 1.747 0 0 0-2 1h-1v-1h-12v-1l-3 1v-1h-3v-1h-9v-1h-1v1h-1v-1l-5-1v1a1.739 1.739 0 0 1-2-1h-1v1c-1.848.306-2-1-2-1l-3 1-2-1v1h-6v1c-3.231.954-4.7-1.285-7-1v1a1.748 1.748 0 0 1-2-1l-2 1v-1h-3v1c-.649.1-1.855-1.105-4-1-1.973.1-2 1-2 1l-16-1v-1l-3 1v-1h-1v1h-1v-1a1.731 1.731 0 0 0-2 1l-2-1v1h-1a2.264 2.264 0 0 0-2-1 1.75 1.75 0 0 1-2 1v-1c-1.4-.2.374.664-1 1h-16v1c-2.361.654-2.661-1.093-4-1v1h-3v1l-5-1v1h-5v1h-1v-1h-2v1h-1v-1h-1v1h-1v-1l-3 1h-4v-1h-1v1c-2.55.573-3.6-.808-5-1-.883.449-.347 1.951-2 2v-1l-3 1v-1h-5v-1l-3 2v-1l-5 1v-1a2.733 2.733 0 0 0-3 1l-2-1v1h-6v-1a1.661 1.661 0 0 0-2 1l-3-1v1h-1v-1l-12-1v1c-1.534.384-.587-1.537-2-2-1.3 1.064 1.215 1.7-1 2l-1-2h-1v1l-3-1v1h-3c-1.347.432.4.795-1 1-2.268.333-3-1-3-1l-2 1v-1h-1v1h-5v1l-3 1-1-2c-.952-.223-2.933 2.107-5 2v-1h-1v1a1.749 1.749 0 0 1-2-1l-3 1v-1h-4v1l-3-1v-1l-3 1v-1h-2v-1c-1-.228-1.868 1.288-4 1h-1v-1h-6s.053 1.272-2 1a1.874 1.874 0 0 0-2-1c-1.409.125.414 1.008-1 1v-1c-1.849-.31-2 1-2 1l-5-1c-2.488.663-4.312 2.788-9 2v-1c-.637-.111-2.674 1.639-5 1v-1h-5v-1h-12v-1h-1v1l-10 1v1h-1v-1h-1v1l-3-1v1h-4v1h-1v-1l-3 1c-1.411-.1.412-1.073-1-1v1c-4.181 1.026-9.534-1.087-12-2h-3v-1h-1v1h-1v-1h-3v-1h-14v1l-3-1v1h-5v1h-5v1h-8v1h-1v-1h-1v1a2.61 2.61 0 0 1-3-1h-5v-1h-2v-1l-2 1v-1h-2v-1l-5-1v-1h-4v-1h-4v-1h-1v1h-3v-1h-2v-1h-6v-1h-3v-1l-3 1-1-2h-5v-1h-3v-1h-3v-1h-3v-1l-3 1-1-2-2 1-1-2-2 1v-1h-1v1h-1l-1-2h-7v-1h-2v-1h-1v1c-1.4.207.391-.743-1-1s.4.814-1 1l-2-1v1h-1v-1h-3v-1h-1v1h-4v1h-5v1h-2v1h-3v1h-3v1h-3v1h-6v1h-1a2.329 2.329 0 0 0-2-1v1l-3-1v1l-4 1v1c1.139 1.139.4 0 1 2l9 3 7 1v1l4 1v1h3l1 2h3l1 2h2l3 4h2l1 2 5 4 2 3 6 2v1a13.4 13.4 0 0 0 6 3l1 3 9 1v-1h5l2-3h2l2-3c5.452-3.833 13.345-7.605 22-8 .844 1.135-.127.145 1 1l-1 3c-3.64.924-4.775 3.111-9 4v2h-1v-1c-.859-1.889-1 2-1 2-2.762.723-2.237.279-3 3l-4 1c-.723 2.762-.279 2.237-3 3-1.006 3.858-2.93 3.142-4 7h-2c-.684 2.927-1.113 3.275-4 4-.846 3.4-2.817 3.489-4 6v3h-1v2h-1v3l-2 1 1 2h-1v2h-1v5l-2 1v5h-2c-.028 5.859-2 8.292-3 13h-2c-.564 4.827-1.879 2.94-3 7h-2v2h-2v2a8.053 8.053 0 0 0-4 2v1h-3l-1 2c-1.558.685-3.816-1.207-4-1v2l-5 1v1c-1.89 1.387-2.329 2.248-5 3-.644 2.739-1.309 2.276-2 5h1c1.417 2.51 2.05 2.866 6 3 2.431 2.2 4.819-.006 8 0v1h1l1-2 9-1v-1h3v-1h3v-1h3v-1h4v-1h2v-1l6-1 1-2 3-1v-1l3-1v-2l9-3c.684-2.927 1.113-3.274 4-4v-2h2v-2h2v-2c2.739-.644 2.276-1.309 5-2v-2h2v-2l-17-7v-3c2.855-.033 15.36-4.9 16-6v-2h-1l-1-5h-1v-4c-2.053-5.7-4.769-11.165-5-19 1.135-.844.145.127 1-1h2l6 7h2l3 4h2l2 3h1c.989-5.382 4.718-9.764 7-14l2-6 2-1c2.034-2.991 1.926-4.979 6-6v23l20 2v2l9-1v-1h2v-1h1v1h6v1l10 1 1 2 12 4v2l4 1c1.85 1.179 3.411 6.611 6 4v2h2v1l6 5v2l3 1v1h-1v1c-1.272-.672-1.357-1.568-2-2h-2l-1-2h-2l-2-3h-3v-1h-2v-1l-4-1v-1h-3v-1l-4-1v-1l-8-1v-1h-5v-1h-1c-1.219.659.367 1.361-1 1s.4-.793-1-1c-1.808-.267-3.595.849-4-1h-1v2c-9.156.566-15.456 7-25 9-1.59 5.61-2.145-.768-3 5-3.428.871-2.575 2.068-6 3v2l-4 1v2c-5.107 1.351-5.164 5.642-11 7v2l-9 5v2c-3.515.915-2.853 2.433-7 3-.644 2.739-1.309 2.276-2 5h-2l-1 2h-4v2l-3 1v1h-3v1h-2v1h-2l-1 2h-2v1l-5 1v-1h-1l-1 2h-4l-1 2h-1v-1l-4 1v1l-3-1v1h-5c-1.386.282.406.844-1 1-.223-.094-.236-1.613-3-1 0 0-.068 1.035-2 1v-1h-1v1h-3v1h-1v-1l-3 1v-1l-2 1a32.628 32.628 0 0 0-11-2c-2.971-4.945-5.032-3.138-5-12l3-1c.947-4.362 3.342-4.349 4-9h2c.347-1.768.847-4.064 2-5h2v-1c1.691-1.427 2.428-2.363 5-3v-2l4-1-1-2c.937-1.23 1.968-.9 3 0v-3l3-2v-3h1v-3h1v-1c-.406-1.355-.707.384-1-1l2-1v-2h1l1-6 2-1-1-3 2-1 1-7h2l1-7h1l1-2h2v-1l-3-1-2 1-2-3h-2l1-2h-3l-1-2h-2c-.157-1.994 1.51-.688 0-2v-1c-1.426-.949-2.861-.006-4-1l-3-4-4-3 1-2h-2v-3l-3-2v-1h-2l1-2h-2l-2-3h-2l-1-2h-3l-2-3h-3v-1h-3v-1h-3v-1l-6-1-6-7 1-5c3.1-.749 4.567-2.889 7-4l9-2 1-2 4-1 1-2h2V5h2V4h3l1-2 2 1V2h2V1l2 1V1h7V0h1v1h6v1a1.663 1.663 0 0 0 2-1l5 1v1h5v1l4 1v1l3-1 1 2 7 1v1h2v1h2l1 2h4v1l5 1v1l4 1v1h4v1l7 1v1h3v1h3v1h3v1h2v1h2l1 2h3v1h2v1h3v1c6.117 2.057 22.853-2.723 27-4 6.938-2.136 14.865 1.56 19 3l9 1v1h1c1.607-.887 4.931.266 9-1v-1h5v-1h5v-1h4v-1h4v-1l2 1v-1h4v-1h1v1h13c1.382.3-.4 1.188 1 1v-1h8v-1h3v-1h3v-1h5v-1h1a1.723 1.723 0 0 0 2 1v-1h14v1h1c1.269-.689 3.825-1.018 8 0v1h1v-1h5v-1h1l3 1v-1l10-1v-1h8v-1h7v-1h1v1h4v1l2-1v1h2v1h7v1l2-1 1 2 2-1v1h5v1h13v1c1.261.175 1.669-1.521 4-1 0 0-.043 1.258 2 1v-1c1.3-.121 1.647 1.425 4 1v-1l2 1h5v-1a1.683 1.683 0 0 1 2 1l3-1a1.684 1.684 0 0 0 2 1v-1h1v1h11l3-1v1h3v-1l2 1v-1h16l41 2h15v-1c2.383-.674 4.259 1.107 5 1v-1h15v1l2-1v1l13 1v-1l2 1h14v-1l2 1v-1h4v-1h1a1.725 1.725 0 0 0 2 1v-1h10v1l3-1v1h5v1h1v-1c1.988-.29 1.281.633 2 1 1.412-.073-.382-.7 1-1h8v-1h3v-1c2.318-.691 2.742 1.2 4 1v-1h7v-1h5v-1c6.029-1.856 14.51.842 18 2h5c1.609.494 5.877 1.713 9 1v-1l2 1 2-1a1.786 1.786 0 0 0 2 1v-1h1v1h1v-1l6-1v-1h1v1c2.229.178 2-1 2-1h5c1.378-.32-.4-1.181 1-1v1h7v1h6v1h4v1h10l3 1v-1h3v-1h1c.949.663-.357 1.4 1 1v-1h3v-1c5.03-1.652 9.369.376 12-1 1.412.075-.379.686 1 1h6v1h7v1h3v1h14v-1a1.677 1.677 0 0 1 2 1l10-1v-1h4v-1c1.71-.364 1.72.936 2 1 2.391.55 4.3-1.1 5-1v1h6v1h5v1l40-2c7.295.163 17.841 4.175 26 2v-1l3 1v-1h11v1l2-1a2.659 2.659 0 0 0 3 1v-1h2v-1l3 1c4.372.05 3.3-1.086 7-1l2 1v-1c3.638-.772 9.492 1.294 11 1v-1h4v-1c.754-.106 2.6 1.66 5 1v-1h12c11-3.243 30.131-1.7 37-1 1.407.144-.395-.77 1-1 2.545-.419 3 1 3 1a2.649 2.649 0 0 0 3-1h1v1l2-1v1l2-1 3 1v-1l3-1v1l15-1v-1c1.739-.339 1.671.917 2 1h9v1h3v1h18v-1c1.393-.246-.169.2 1 1h1v-1h4v-1c1.692-.36 1.745.944 2 1l12-1v-1c.67.333 1.33.667 2 1a1.7 1.7 0 0 1 2-1v1h8v1h6v1h1v-1c2.61-.378 3 1 3 1l8-1 3 1v-1h3v-1c.67.333 1.33.667 2 1v-1h3v-1h1v1h1v-1h14v1h1v-1h1v1h4v1c.67-.333 1.33-.667 2-1v1l12-1c1.38.3-.38 1.292 1 1v-1h2v-1h6c.33-.667.67-1.333 1-2 .67.333 1.33.667 2 1v-1l16-1v1h7v1h6v-1c.79-.1 2.58 1.665 5 1v-1h8v-1l3 1v-1h6v-1c6.85-2.076 20.67 1.679 25 3h17v-1c.67.333 1.33.667 2 1v-1h9v-1h1v1l5-1v1h11v1l20 1v-1h3v-1h1v1h3v-1h1v1c3.1-.423 10.42-2.315 15-1v1c2.36.672 4.29-1.11 5-1v1h4v1c.67-.333 1.33-.667 2-1v1h4v1h5v1h1v-1l3 1v-1h6v1h1v-1h7v1h1v-1h5v-1l3 1v-1h5v-1a2.669 2.669 0 0 1 3 1c.67-.333 1.33-.667 2-1v1h1v-1h6v-1l3 1v-1c.67.333 1.33.667 2 1 .33-.667.67-1.333 1-2l3 1v-1l21-1c.67.333 1.33.667 2 1v-1c2.42-.453 4.27 1.091 5 1v-1h3c.22.046.34 1.322 2 1v-1h5v-1c.67.333 1.33.667 2 1 0 0 .13-1.268 2-1v1l3-1v1l6-1h8v1h1v-1c.67.333 1.33.667 2 1 1.16-.792-.38-1.3 1-1v1h7v1a1.674 1.674 0 0 0 2-1l3 1c.67-.333 1.33-.667 2-1a1.709 1.709 0 0 0 2 1v-1h1v1h7v1h1a1.628 1.628 0 0 1 2-1v1h4v1h3v1c.67-.333 1.33-.667 2-1v2Zm-421 162-6-1-1-2-4-1-1-2h-2l-2-3-4-1-1-2-4-1-1-2-3-1v-1l-6-2v-1l-3-1-1-2-4-1-1-2-4-1-1-2h-2l-1-2h-2v-1h-2c-.533-.343-.849-1.361-2-2v1c1.933 2.129 1 9.153 1 13 0 12.5.851 26.447-3 35l-2-1-6-10-1-4h-1v-2h-1v-3l-2-1-1-5h-1l-2-6h-1v-3h-1l-1-4h-1v-3h-1v-2h-1v-2h-1l-1-5h-1c-1.944 3.212-4.9 3.9-8 6l-1 2h-2l-4 5h-2l-3 4h-2l-2 3h-2l-2 3h-2l-1 2a12.259 12.259 0 0 1-7 3l-1-3h1l1-5h1v-2h1v-2h1v-2h1l1-4h1v-2h1v-2h1v-2h1v-2h1l1-4c1.591-2.982 3.462-4.558 4-9a30.159 30.159 0 0 1-8-6l-1-2h-2l-14-15v-2a15.682 15.682 0 0 1 6-1c2.124 1.8 5.688.048 9 1 7.049 2.027 16.553 2.381 23 5V91c1.8-2.106.975-8.253 1-12 .042-6.42 1.034-13.506 3-18h1v1c1.953 1.789.851 1.9 2 4h1v2h1v2h1v2h1v2h1v2h1v2h1l1 4 2 1v2h1v2h1c1.6 2.976 1.566 6.877 4 9v-1l9-7 2-3h2l5-6h2l3-4h2l4-5h2l5-6h2l3-4c3.415-3.291 9.7-7.82 15-9v1h-1v6h-1l-1 7h-1v2h-1v3h-1v2h-1l-1 6h-1v2h-1v3h-1l-1 5h-1v2h-1v3h-1l-1 4h-1v3h-1l-2 6h-1v2c-1.929 3.612-4.342 5.809-5 11 3.824 2.553 5.4 8.106 8 12l2 1v2l2 1v2l3 2v2l2 1v2l2 1 1 3 3 2v2l3 2v2l3 2 1 3 2 1v2l2 1v2l2 1v2l2 1c.33 1.333.67 2.667 1 4h1c1.38 1.8 1.57 1.972 2 5ZM282 53a7.728 7.728 0 0 1 4 2v1h2l1 2h1l1 2h2l1 2 4 1 1 2 4 1v1l3 1 1 2h2l2 3h2l1 2 3 1v1a8.176 8.176 0 0 0 4 2c1-1.5 4.451-4.1 6-5h2l1-2h2v-1h2v-1h2v-1h2v-1h2v-1h2v-1h2v-1l4-1v-1l4-1v-1h2v-1h3v-1h2v-1l4-1v-1h3v-1l5 1v1h-1l-1 5h-1v3h-1v3c-2.593 6.524-5.1 14.6-8 21l14 1v1l18 1v1h9a44.824 44.824 0 0 0 8 2v3l-3 2v1l-4 1-1 2h-2v1h-2v1h-2v1h-2c-7.129 3.81-14.067 7.665-22 11 .674 1.271 1.563 1.353 2 2v2l3 2v2l2 1v2l3 2v2l3 2v2l3 2v2l2 1 1 3h1v2l2 1v2l2 1v2l2 1v2l3 2v2l3 2a21.834 21.834 0 0 1 3 8c-4.988-.452-7.6-3.077-11-5h-2l-1-2-4-1-1-2-4-1-1-2-6-2v-1l-3-1-1-2h-2l-1-2h-2l-2-3h-2l-1-2h-2l-1-2h-2v-1l-3-1-7 19h-1v2h-1l-7 22h-1v2h-1v2l-2 1-1 4h-1l-3 9h-1c-1.261 2.559-1.9 4.656-3 7h-3v-8h-1v-17c0-12.459-.94-23.574 0-34-4.194 1.367-4.573-.245-8-2h-2v-1l-5-1v-1h-3v-1l-4-1v-1h-3v-1l-4-1v-1h-2l-1-2h-2v-1h-2v-1h-2v-1h-2v-1h-2v-1l-4-1-1-2h-2v-1h-2v-1h-2l-1-2h-2a14.65 14.65 0 0 1-5-5l4-3v-1h2l1-2h2l1-2 4-1 1-2 4-1 1-2 4-1 1-2 4-1c2.67-1.478 3.164-3.1 7-4-.174-6.844-3.011-12-5-17l-2-9h-1l-2-11h-1v-2h-1l-1-5Zm1083 296h-2c.05 1.413.76-.393 1 1 1.89.86-2 1-2 1v4c-.67-.333-1.33-.667-2-1-2.87 2.707 1.81 6.1-5 8-.33 2-.67 4-1 6h-2q-2.505 6-5 12c-.67.333-1.33.667-2 1-.33 1-.67 2-1 3h-1c.33.667.67 1.333 1 2l-3 1v4h-1c-1.3 1.87-1.63 1.907-2 5h-2a12.638 12.638 0 0 0-1 5h-2c-.56 3.137-.97 4.19-4 5-.33 1.667-.67 3.333-1 5h-2c-.64 2.739-1.31 2.276-2 5-3.7.9-4.34 3.23-5 7h-2q-1.995 4.5-4 9h-2c-1.15 3.084-.47 4-4 5-.98 3.374-1.21 1.913-3 4h-1v2c-3.37.979-1.91 1.212-4 3v1h-2v2c-2.52.612-1.65.534-3 2h-1v2h-1c-.33 1-.67 2-1 3-2.93.684-3.27 1.113-4 4h-2c-1.16 2.716-1.78 4.18-5 5-.33 1.333-.67 2.667-1 4-4.43 1.168-3.55 3.76-8 5v2h-2c-1.25 4.455-2.97 2.887-6 5-.67 1-1.33 2-2 3h-2v1h-1c-1.96 2.288 1.08 1.844-3 3v2c-5.28 1.427-3.85 5.138-10 6-1.03 3.564-3.77 3.785-6 6l-6 7h-2l-3 4h-2c-.33.667-.67 1.333-1 2h-2c-.33.667-.67 1.333-1 2h-2v1c-1.36.915-1.76.725-4 1v2l-3 1c-.67 1-1.33 2-2 3h-2c-.67 1-1.33 2-2 3h-2c-.67 1-1.33 2-2 3h-2c-.33.667-.67 1.333-1 2l-3 1v1l-3 1v2l-3 1c-.33.667-.67 1.333-1 2h-2c-.33.667-.67 1.333-1 2h-2c-.67 1-1.33 2-2 3h-2v1h-3c-.33.667-.67 1.333-1 2h-2v1h-3c-.67 1-1.33 2-2 3l-6 2c-.33.667-.67 1.333-1 2h-2v1l-3 1c-.33.667-.67 1.333-1 2-.67-.333-1.33-.667-2-1v1h-2v1l-3 1v-1h-1c-.33.667-.67 1.333-1 2h-4v1h-3v1h-2v1h-3c-.33.667-.67 1.333-1 2h-5c-.33.667-.67 1.333-1 2h-2v1h-1v-1h-1v1h-3c-.33.667-.67 1.333-1 2h-3v1c-.67-.333-1.33-.667-2-1-.33.667-.67 1.333-1 2l-9 3v1c-3.5 1.957-6.8 4.1-11 5v2l-3-1c-.33.667-.67 1.333-1 2-.67-.333-1.33-.667-2-1-4.85 1.477-8.05 2.924-15 3v2c-1.67.333-3.33.667-5 1v1h-3c-.33.667-.67 1.333-1 2-.67-.333-1.33-.667-2-1v1h-2c-.33.667-.67 1.333-1 2h-4v1c-1.67-.333-3.33-.667-5-1-.33.667-.67 1.333-1 2-1.41.01.18-.226-1-1-1.39.251.37.662-1 1-2.41.593-2.21-.341-3-1h-1v1h-6v1h-3v1c-.67-.333-1.33-.667-2-1v1h-2v1c-.67-.333-1.33-.667-2-1-.33.667-.67 1.333-1 2h-4v1l-3-1v1h-2v1c-.67-.333-1.33-.667-2-1v1h-6v-1h-1v1h-4v-1h-1v1h-8v1h-4v1h-3v1l-13 1v1h-1v-1h-3v-1h-1v1a2.1 2.1 0 0 1-2-1c-1.693-.26-1.708.931-2 1h-5c-.877 4.045-2.654 4.092-3 9h-2c.411 1.669 1.063 2.2 0 5h-1v3h-1v1h1v1h-1v3h-1l-1 3c.393.457 1.657-.252 1 1l-2 1v2h-1l-2 6h-1v5h-1l-1 6h-1v2h-1v3l-2 1v3h-1l-1 4h-1v5c-.43 1.347-.953-.413-1 1h1v1l-2 1 1 2h-1v2l-2 1v2h-1v2h-1v2h-1v2l-4 3c-1.912 3.068 1.794 2.578-3 4l-1 5-2 1v2h-1c-.922 1.37-.686 1.761-1 4h-2v2h-1l-6 7-3 1v2h-4v1h1c.333 1.795-2.479 2.615-4 3v2c-3.428.871-2.575 2.068-6 3-.723 2.762-.279 2.237-3 3-1.375 5.042-2.787 2.448-5 5v2h-1v-1c-1.726 1.165-1.3.634-2 3-2.3.5-2.465.881-4 2v1c-3.048 1.854-2.651-1.814-4 3h-3v2l-2-1v1h-1v2h-1v-1c-1.664-.878-.861 1.357-1 2h-3v1c-1.139 1.139-.4 0-1 2-2.289.263-2.579.159-4 1v1h-4l-1 3h-1c-2.178 2.454-2.654 3.46-7 4v2c-5.444 1.328-7.427 5.264-14 6v2h-5c-.945 1.8-1.385 1.574-2 4h-3v1h-1v3l-4 1c-1.168 4.431-3.76 3.55-5 8-4.6.672-2.44.914-5 3v1h-4v2h-2v2l-2-1-1 2c-1.732.879-2.869-.278-4 1v2c-.965 1.034-1-1-1-1-1.569-1.154-.889 1.587-1 2-4.124.928-2.867 1.3-7 2v2l-3 1v1h-2v1l-5 1v1l-5 1-1 2h-4v1h-7v1h-8c-1.363.377.385.712-1 1v-1h-1v1l-8 1v1h-4v1h-2v1l-2-1v1l-5 1-1 2-9 3v2c-2.259.243-2.632.112-4 1v1h-2v1h-3v1h-2l-1 2h-3v1l-4 1v2c-5.443.338-14.528 4.26-22 2-2.973-.9-5.236-2.572-9-3v-2h-2l-2-6h-1v-5h-1v-2h-1v-3h-1v-10h-1l-1-5-2-1v-3h-1l1-3h-1l1-3c-.168-1.4-1.014.414-1-1h1v-1h-1v-1h1l1-4h1v-3l3-2-1-2h2c1.439-7.76 6.949-9.379 8-17h3v-3h1c1.139-1.139 0-.4 2-1 .781-3.158 2.671-4.238 4-7h3c.723-2.762.279-2.237 3-3v-2l5-1v-3h2l1-3 4-3v-2l2-1v-2h1l1-4h1a8.027 8.027 0 0 0 2-4h2c1.336-6.349 6.547-7.853 8-14 4.079-1.168 1.172-.393 3-3l2-1v-3l3-2a18.8 18.8 0 0 0 3-7h2c-.02-3.81.362-5.946 2-8l2-1v-3h1l-1-2h1v-3h1l-1-2 2-1v-5h1v-2h1v-4h1v-3h1v-4h1v-2h1l-1-3 2-1v-5h1v-2h1a43.56 43.56 0 0 0 2-8h2l1-8 2-1c.868-2.058-.791-2.87-1-4h1v-2l2-1s-1.58-4.323-1-6h1v-2h1l-1-3h1c.756-1.483.715-1.679 1-4l-3-1v-1h-8v-1l-2 1v-1l-6-1v1c-1.722 1.965-.946 5.336-2 8h-1v3h-1v2l-2 1v3h-1v2l-2 1-2 9h-2c1.679 5.485-1.722 3.512-2 8h1v1h-1v2h-1v5h-1v3h-1l-2 16h-2l-1 4h-1l1 2-2 1v2h-1c-.977 1.464-.84 2.477-1 5h-2c-.871 2.021-7.638 12.286-9 13h-2c-.644 2.739-1.309 2.276-2 5h-2c-.723 2.762-.279 2.237-3 3-.326 3.686-.818 4.21-4 5-.705 3.087-1.949 4.254-5 5-.738 3.217-1.357 3.641-5 4v2h-2v2c-3.377.7-3.852 2.168-7 3-1.2 4.069-.7 1.056-3 3l-1 3c-2.412 3.144-5.5 1.612-7 7h-2c-1.093 4.013-.372 1.262-3 3v1h-2l1 2h-2l-1 2h-2l-1 2c-2.471 2.34-8.643 8.135-12 9v2c-2.762.723-2.237.279-3 3h-3v1c-2.231 1.874-2.947 4.988-5 7l-2-1v2c-1.167 1.323-5.825 3.553-8 4-1.616 6.049-8.325 6.967-10 13h-2c-.684 2.927-1.113 3.274-4 4v2h-2v2a7.878 7.878 0 0 0-4 2v1l-4 1-2 3h-2l-2 3h-2l-1 2h-2l-1 2h-2l-2 3h-3v1l-3 1v2c-6.423 1.487-10.338 6.465-17 8v2c-4.343.224-4.571 1.182-7 3v1h-3l-2 3c-1.833 1.174-6.193 1-8 2l-2 3-5 1v2c-2.277.213-2.616.143-4 1v1h-3l-1 2h-4l-1 2-2-1v1l-4 1v1l-9 2-1 2-5 1v1h-3v1h-2v1c-1.372.344.138-.287-1-1h-1v1h-4v2c-3.567.521-2.631 1.06-6 0l-1 3-3-1-2 3-6 2v2h-4v2l-3 1v1h-2v1l-3-1v2l-5 1-1 2h-4c-1.361.383.406.852-1 1v-1h-1v1l-6 2v-1h-1v1h-1v-1h-3a1.668 1.668 0 0 1-2 1v-1h-4c-2.19-.778-8.1-5.473-10-3v-2h-2l1-2h-2l1-2h-1v-3h-1v-3h1l-1-2h1v-1a2.641 2.641 0 0 1-1-3l2-1v-1h-1c-.1-2.234 1-2 1-2v-6h1v-2h1l1-6h1l1-4h1v-3l2-1-1-2 4-3-1-2h2c.618-3.469 1.648-5.168 5-6a7.934 7.934 0 0 1 2-4h1v-2h1l2-6h1v-3h1v-2h1l-1-3 2-1v-2h1l-1-2v-1h1a1.687 1.687 0 0 0-1-2l1-2a1.848 1.848 0 0 0-1-2v-1h1a1.646 1.646 0 0 0-1-2c-.2-1.4.682.378 1-1l-1-2h2v-1h-1v-4h-1v-4h1v-1h-1v-3h-1v-3h-1l-1-4h-1l-2-9-2-1c-.345-1.461 1.925-1.465 2-2l-1-3h-1l1-10h2a9.921 9.921 0 0 1 0-8l2-1c.739-1.78-.668-1.508-1-2l2-6 2-1v-4h1l1-4h1l-1-2 3-1-1-3h1v-5c1.9-5.7 3.971-10.177 4-18h2c-.019-4.419.284-4.544 2-7h1l-1-2 2-1v-3h1c1.139-1.139 0-.4 2-1v-3h2v-2h2l1-3h1l2-9h1l2-6h2l1-5h2v-2h1l6-7h2l2-3h3v-1h2v-1h2l2-3h1v-2l3-2 1-5 2-1v-9h-1v-1h1l-1-9 2 1v-1c-2.024-2.322.09-4.388 0-8h-1c-.456-1.645 1.605-.418 2-2h-1v-6c-2.739-.644-2.276-1.309-5-2v-2l-6-1-1-2h-3l-1-2-6-1v-1l-4-1-1-2h-1v1c-1.517-.6-1.279-1.524-2-2h-2l-1-2c-2.343-2.2-4.264-4.143-8-5v-2h-2v-2c-3.137-.56-4.19-.974-5-4h-2l-1-2-3-1-2-3-3-1v-2h-2c-.979-3.374-1.212-1.913-3-4h-1v-2h-2v-2c-2.762-.723-2.237-.279-3-3h-2v-2h-3v-2c-3.087-.705-4.254-1.949-5-5h-2c-.644-2.739-1.309-2.276-2-5h-2l-2-6h-1v-2l-3-2-1-4-2-1v-2h-1l-4-11h-2l1-2h-2a18.373 18.373 0 0 0-3-7l-3-2v-2l-2-1v-2c-1.772-3.135-4.049-5.875-5-10h-2l1-2-2-1v-2l-2-1v-2l-2-1v-2l-2-1v-3h-1v-2h-1v-3h-1v-2c-.312-.52-1.4-.717-2-2h1v-1h-2c-.355-3.066-.678-3.176-2-5h-1l1-2h-2a22.744 22.744 0 0 1-3-6c-5.546-1.314-1.988-2.9-4-6l-2 1v-3l-3-1v-1h1l-1-3h-2l-1-7-2-1c-.046-.324.946-2.226 1-4h-2c-.067-3.62-1.261-5.643-2-8v-7l-2-1v-8h-1v-3h-1l1-5h-1v-2h-1c.155-1.634 2.761-.489 2-2h-2l1-2h-1v-1h1l-1-3h1v-1l-2-1 1-2h-1v-5h-1v-4h-1v-2h-1c-.3-1.382.222.181 1-1v-1h-1v-4h-2c.9-2.666.456-2.873 0-6 .255-.489 1.678-.181 1-2l-2-1 1-3h-1l-1-4h1v-1c-1.7-3.391-2.593-1.306-3-7h-2v-2c.674-.812 1.416.352 1-1-.582-.116-2.952.629-2-1h1l1-2-2 1v-1c-1.139-1.139-.4 0-1-2-2.01-.574-.865.12-2-1h1l-1-5h-2l1-2h-2c-.273-3.552-1.555-5.668-3-8l1-2-3-1v-4h-1l1-2h-1c-1.139-1.139 0-.4-2-1l-1-8h-1c-1.656-2.45-1.669-1.919-2-6h-2l1-2-2-1v-2h-1c-1.712-2.7.952-1.875-3-3v-2c.572-.629 1.511.319 1-1h-2l1-3h-2l-1-3h-1v-2h-1v-2l-2-1v-2l-2 1 1-3-3-1s1.136-1.989 0-3h-2l1-2h-2l1-2c-1.2-1.241-1.964-1.436-4-2v-2h-2l-1-6h-2v-1h1c.063-.353-1.7-3.609-2-5h-2v-2h1v-1l-2-1v-4l-2-1v-5h-2l-1-5c.021 0 1.991.009 1-1h-3c1.056-.955.182-6.006-1-8l-2-1v-3l-2-1-2-6h-1l1-2-2-1v-2h-1l1-3-2-1-1-3h-1a4.613 4.613 0 0 1 0-4l-3-2v-2h-1v-2l-2-1v-2h-1l1-2-2-1v-2h-1l-1-6h-1v-3l-2-1v-4h-1v-2l-2-1v-2a39.8 39.8 0 0 0-5-6c1.139-1.139 0-.4 2-1v2h3v2c4.338 2.083 2.452 2.03 5 5l2 1 1 4 2 1v2h1v2h1l1 4 2 1-1 2 2 1v3l3 2 1 4 2 1v2l2 1c1.545 1.878 1.835 3.636 2 7h2c.259 2.281.144 2.593 1 4h1v3h1v2h1c.968 1.494.8 2.463 1 5h2c.37 3.044.653 3.2 2 5h1c1.354 2.143 1.678 5.143 2 8h2c.731 8.031 6.97 11.9 8 20h2c.933 8.163 9.9 12.2 12 20h2c1.236 5.978 5.642 8.649 7 15h2a22.159 22.159 0 0 0 3 8h1v2l3 2-1 3 2 1v2l2 1v2h1v3h1l2 6h1l-1 2h1v2l2 1v2h1v3l2 1v4l2 1v3l2 1v2h1v3l2 1-1 2 2 1v4l2 1v2c.42.679 1.473.43 2 2-.477 1.331-.761-.394-1 1h1l1 16h1v5h1v3h1v4h1v2h1l1 7h1v-2c2.98-2.688 2.073-5.878 4-9l2-1v-2l2-1v-2h1v-2h1v-2h1v-2h1l1-3 2-1v-2h1v-2h1v-2h1v-2l2-1v-2h1a8.19 8.19 0 0 0 2-4h2l1 6h1l1 18h1v8h1v7h1v9h1l2 29h1c2.876-2.746 11.66-3.674 16-5h5v-1h5v-1h7v-1h4v-1h10v-1h6v-1h8v-1h8v-1l16-1v-1h6v-1h12c2.375-.717 4.4-1.781 8-2-.38 3.541-1.241 3.036-2 6h-2c-2.6 4.508-6.426 7.488-10 11l-2 3h-2l-9 10h-2l-12 13h-2l-7 8h-2l-5 6h-1v2c3.118 2.15 2.1 3.984 4 7l2 1v2h1v2l3 2 1 4 2 1v2h1v2h1v2h1v2h1v2l2 1v2h1v2h1l3 9h1v2h1v2h1l2 6h1v4l2 1 1 4h-1v-1h-4l-1-2h-2v-1h-3v-1l-4-1v-1l-6-2v-1h-2v-1h-2v-1h-2v-1l-4-1-1-2h-2l-1-2-6-2-1-2h-2l-1-2h-2v-1l-3-2v2c2.228 2.556 1.879 13.9 2 19 .267 11.277 2.031 22.559 2 35 2.251.253 2.639.1 4 1v1h2v1h2v1c1.79 1.431 2.392 2.259 5 3v2c3.858 1.006 3.142 2.93 7 4v2c3.137.56 4.19.974 5 4 5.31 1.242 10.9 8.158 14 12l2-1v2l11 7h2l1 2h2v1c1.365.37-.1-.328 1-1l3 1v2h3v2l6 2v2h3l-1-2 2-1 1-4 4-1c.549-2.784.77-.1 0-3h4v-2c3.778-.323 5.32-2.027 8-3l10-2v-1h2v-1a8.594 8.594 0 0 1 4-2c.705-3.087 1.949-4.254 5-5 1.059-4.316 3.3-3.486 5-6l1-4h1v-2h1l-1-2 2-1v-4h1v-3h1v-3h1v-5l2-1v-4h-1v-1h1v-7h1l-1-2h1v-6h1l1-7h1l3-9h2l-1-2 2-1v-3l4-3v-1h2l2-3h2v-1c-4.543-.435-6.206-2.938-7-7h-2c-.3-1.845-1-2-1-2v-1h1v-1h-1v-3a4.313 4.313 0 0 1-2-2c.978-1.336 1.395 1.153 2-1h-2c-.615-1.274.535-.534 1-1l3-5c4.479-2.662 16.543-3.114 24-3v-1c-2.1-1.723-1.214-2.7-2-6-.07-.3-1.262-.3-1-2h1l-1-5h1c1.221-6.181 2.2-3.507 6-6v-1c1.757-1.349 1.975-1.674 5-2v-1c.605-.255 2.158 1.265 4 1v-1h1v1l5-1v1h5v1l12 2v1h4v1h3v1l2-1v1h3v1l8 1v2c.484.951 3.859 1.41 3 4h-1v1h-4v1l-3-1v-1h-2v-1c-2.054.37-6.189 1.3-10 0v-1h-3c-1.336-.465.414-1-1-1v1l-6-2v1c-1.536-.412-1.056-1.431-2-2l-3 1v-1h-2v-1h-6v-1l-10 3-1 10 4 3v1l10 2v-1h1v1a33.834 33.834 0 0 0 12 2c1.212 2.128 2.252 2.177 3 5h-2v2l-11 1v-1h-1v1c-1.4-.19.37-.648-1-1l-13-1c-.337.351.219 1.717-1 1v-2h-1v1c-1.406-.156.247-.333-1-1l-3 1v1h-1v-1h-4v-1c-1.4-.185.386.721-1 1h-10l-1 5c2.6.616 3.279 1.591 5 3v1l3 1 1 2h2l9 6v3c-2.316.875-4.407 1.017-8 1a5.67 5.67 0 0 0-6-2v1h-3l-2 3h-2l-3 11h-1l-1 18h1v-1h2l1-2h2v-1h2l1-2h2v-1h2v-1h2v-1h2l1-2h2v-1h2v-1h2v-1h2v-1c1.379-.908 1.751-.7 4-1v1c-2.12 1.87-2.332 4.6-4 7l-3 2v2l-2 1v2h-1l-1 3-2 1v2h-1l-3 4c6.279-.112 10.578 1.571 15 3h5v1h4v1h4v1h4v1h3v1h4v1l7 1v1c1.139 1.139.4 0 1 2l-12 2v1h-4v1h-3v1h-3v1h-4v1h-2v1h-4v1l-12 3-3 10h-1l-1 6h-1l-1 4h-1l-1 5h-1v3h-1v2h-1v3c-2.052 4.545-5.7 8.484-7 14h-2c-.323-1.965-1-2-1-2v-12h-1v-12h-1c-1.363-4.823.394-11.256-1-15h-1v1c-2.471 1.389-3.247 3.733-5 5h-2l-3 4h-2v1l-4 3v3h-1l-1 3h-2v2c-6.772 1.717-9.844 8.017-18 9-.926 3.365-1.209 1.945-3 4h-1l-1 5-2 1v2h-1v2h-1v4l-3 2-1 5-3 2-1 13-2 1-1 6h-1l-1 4h-1v3l-2 1v3h-1l-1 3h-2v2c-3.377.7-3.852 2.168-7 3-.607 2.6-1.6 3.281-3 5h-1l-1 3-2 1-2 6-2 1 1 2h-1v3h-1v3h-1v3h-1v2h-1v2l-2 1v2l-2 1-1 4-2 1v2h-1v3h-1v4h-1v1h1v1h-1l-1 5h1v1h-1l-1 4h-1c-.783 2.3 1.007 2.681 1 4h-1l-1 8h-1v2h-1l1 3h-1v2h-1v4l-2 1v4h-1c-1.139 1.139 0 .4-2 1 .192 3.606 1.2 3.011 0 6h-1v4h-1v3h-1l1 3h-1l-2 9h1v3h1v2h1v2l2 1-1 2h1v3h1v4h1v5h1v7h-1c-.035.776 1.6 3.269 1 6h-1c-.073 1.412.779-.4 1 1v3h-1c-.069 1.352 1.647 1.633 1 4h-1l-2 11h-1v2l-2 1v3h-1v2l-2 1v2c-1.694 3.207-3.039 5.944-7 7v2c-3.982.841-4.373 3-8 4-.7 2.665-1.612 3.144-3 5h-1v3l-2 1-1 5-2 1v3h-1v2h-1v7h-1l1 10c2.612 1.382 1.693 1.769 6 2 1.113 1.035 7.4 1.95 10 1v-1h2v-1h3v-1l4-1v-1h3l1-2 16-7v-2c5.353-.149 7.22-2.652 11-4l12-2 1-2h4v-1h2v-1l2 1 1-2h4v-1l4-1v-1h5v-1h3v-1h2v-1h3v-1h2v-1h2l1-3h1v-2l2-1v-2h1v-2h1v-2h1v-2l2-1 11-21h-1c-3.639 3.119-15.295.383-21 2-12.778 3.621-29.279 4.947-45 5l-1-2 3-2v-1h2l1-2h2l1-2h2v-1l3-1 1-2h2l2-3h2l1-2 3-1v-1h2l1-2 4-1v-1l3-1 1-2h2l2-3h2l1-2h2l2-3 4-1 1-2h2l2-3c3.04-2.18 4.4-1.14 5-6-1.834-2.11-2-16.14-2-21l-2-47h1v2h2v1l6 5v2l3 2 1 2h2l10 11h2v1l3 2 8 9h2l8 9c1.681 1.536 2.555.762 4 3 1.135-.844.145.127 1-1l9-8v-2l11-10v-2l7-6v-2l5-4v-2l6-5v-2h1c2.206-2.618 3.662-4.431 7-6v11c-2.958 3.418-.5 13.644-2 19h-1l-2 37h1l4-6 3-1 1-3h2v-1l5-4v-2h2c2.212-2.62 4.947-3.008 6-7h2c1.651-2.808 4.03-3.4 5-7 2.739-.644 2.276-1.309 5-2v-2h2c1.129-4.122 3.014-3.847 6-6l3-4h2v-1h1v-2h4c.979-3.374 1.212-1.913 3-4h1v-2h2l2-3h2c-.006-1.414.228-.3-1-1 1.128-1.1-.028-.465 2-1v-2h2c1.006-3.858 2.93-3.142 4-7h2l10-9 1-3c1.33-1.424 5.257-1.847 3-4h2c.626-3.443 2.316-6.241 4-9l2-1v-1h-1v-1h1v-4h1v-4h1v-2h1v-5h1v-3h1v-3h1v-1h-1v-1l2-1 1-6 2-1-1-2 3-2v-5l2 1v-3h1l1-5h2l1-5a1.678 1.678 0 0 1-1-2c.187-1.4.906.411 1-1h-1v-1c.635-1.607 1.961-6.9 1-10h-1v-4h-1v-5h-1v-2h-1v-4h-1l1-3c-1.182-2.987-2-6.47-1-9h-2l1-2h-1v-2c-.229-.384-1.42-.952-2-2 2.01-.574.865.12 2-1-2.788-2.289-2.47-3.661-3-7l2 1a9.111 9.111 0 0 0-2-2c-.952-2.2 1.253-2.832 1-4h-1v-2h-1l1-3h-1v-5h-1c-.628-2.27 1.26-2.837 1-4h-1l-1-4h-1v-8h-1v-2h-1l-1-10h-2c.634-2.151 1.011-2.858 0-6h-1l1-2h-1l1-3h-2c.148-1.605 1.989-.779 2-1 .079-1.61-1.718-1.211-2-2-.815-2.277 1.217-2.77 1-4h-1v-2h-1c-.207-1.4.83.4 1-1 .247-2.04-.334-1.171-1-2 .049-1.413.771.4 1-1 .479-2.921-.557-2.3-1-3l1-2c-.858-1.089-1.272.388-1-1h1l-1-2 2-1-1-3h1v-2h1v-3l2-1 3-4h2c.844-1.135-.127-.145 1-1v6h1c1.585 2.838-1.316 6.065-1 8h1c.54 2.388-1.067 2.636-1 4h1v6h1v4h1v1h-1v1h1v8h1v3h1c.262 1.185-1.817 1.744-1 4l2 1c.338 1.03-1.723 1.819-1 4h1v2h1l1 10h1l2 9h-1v1h1v3h1v5h-1c-.218 1.4.652-.371 1 1v4h1c.113.6-1.685 2.715-1 5h1v3h1l-1 2h1l2 15h1v9h1v5h1v1h-1v1h1v3c.294 1.383 1.076-.412 1 1h-1v3h-1l1 4h3v-1a1.685 1.685 0 0 1 2 1l2-1v1h24v1h1v-1c1.93.281 5.644 1.733 9 1 1.382-.3-.4-1.19 1-1v1h9v-1c1.393-.243-.188.232 1 1l3-1 3 1 1-2c2.276-.83 2.76 1.2 4 1v-1h8v1c1.276.173 1.681-1.732 4-1v1h2v1l3-1v1h11v1h1v-1h5v-1l2 1h1v-1h9c1.826-.049 3.614-1.052 4-1v1h14v1h5v1l3-1v1h4v1h5v1l2-1v1h21v1l3-1s.159 1.284 2 1a1.568 1.568 0 0 1 2-1 1.564 1.564 0 0 0 2 1 1.762 1.762 0 0 1 2-1v1h3v-1l3 1h1v-1h1v1l11-1v-1l3 1v-1l12-1v-1h6v-1h3v-1l4 1v-1c2.571-.631 5.447 1.051 6 1v-1h1v1c1.332-.109 1.481-.912 4-1h7v-1h5v-1l4-1v-1h3v-1l9-1v-1h4v1h1v-1h6v-1c.67.333 1.33.667 2 1v-1l7-1v-1h5c.33-.667.67-1.333 1-2h3v-1l3 1c.33-.667.67-1.333 1-2h3v-1l14-1v-1h4c.33-.667.67-1.333 1-2h3v-1h2v-1h4c.33-.667.67-1.333 1-2h3c.33-.667.67-1.333 1-2l3 1v-1h2v-1h8v-1l3 1c.33-.667.67-1.333 1-2h4v-1h2v-1h2c.33-.667.67-1.333 1-2l9-2v-2l3 1v-1h5v-1h2v-1l8-1v-1h2v-1c.67.333 1.33.667 2 1 .33-.667.67-1.333 1-2l7-1v-1h2v-1l3 1v-1h2v-1h3v-1l3 1v-1h2v-1a28.5 28.5 0 0 1 10-3v-2c8.72-1.987 15.48-9.017 24-11v-2h1v1h1v-1h1v-2l3-1c.33-.667.67-1.333 1-2l4-1c.33-.667.67-1.333 1-2l6-2v-1c.67-.333 1.33-.667 2-1v-2c.97-1.029 1 1 1 1 1.66.972.84-1.434 1-2 2.74-.644 2.28-1.309 5-2v-2h1v1c.86 1.889 1-2 1-2l3-1v-1h2c.33-.667.67-1.333 1-2h3c.33-.667.67-1.333 1-2h2v-1h2v-1l3-1c.68-2.5.52-1.627 2-3v-1h2l3-5c.67.333 1.33.667 2 1v-2h1c.33-.667.67-1.333 1-2h2c.33-1 .67-2 1-3h2q2.505-3.5 5-7h2v-2h2c.68-2.927 1.11-3.274 4-4 .72-2.762.28-2.237 3-3v-2h2c2.12-3.615 5.33-4.716 6-10h2c1.27-5.152 5.64-6.168 7-11h2c1.15-4.394 4.3-4.828 5-10h2v-2l3-2v-2h1c.67-1 1.33-2 2-3h2c-.33-.667-.67-1.333-1-2h1c.33-1 .67-2 1-3h3c.76-3.16 2.23-3.65 3-7h2v-2c.67-.333 1.33-.667 2-1v-4h2c1.02-4.256 3.95-6.425 5-11h2v-2h2c.33-1.333.67-2.667 1-4 .67-.333 1.33-.667 2-1v-3c1.33-.667 2.67-1.333 4-2-.33-1.333-.67-2.667-1-4h2c.38-3.541 1.24-3.036 2-6h3v-1a4.711 4.711 0 0 0 2-4h-1v-1h1v-2h2c.38-5.052 1.8-4.357 4-7 .16-1.994-1.54-.725 0-2 1.14-1.139 0-.4 2-1v-4c1.8-.945 1.57-1.385 4-2v-4c1.8-.945 1.57-1.385 4-2 .45-4.964 3.17-6.617 5-10 .67-2 1.33-4 2-6 .67-.333 1.33-.667 2-1 .33-1.333.67-2.667 1-4 .67-.333 1.33-.667 2-1v-3h1v-2c.35-.6 1.47-.507 2-2-.46-1.339-.75.393-1-1 1.37-2.37 2.57-3.217 3-7l3-1v-1h-1v-1h1v-4c.67-.333 1.33-.667 2-1v-2h1c-.33-1-.67-2-1-3 .67-.333 1.33-.667 2-1v-1h-1c.33-.667.67-1.333 1-2h-1v-1h2v-4h-1v-1c.67-.333 1.33-.667 2-1v-2h1v-2h1v-3h1c.33-1.667.67-3.333 1-5h1c.33-1 .67-2 1-3 .67-.333 1.33-.667 2-1v-4h1v-3h1v-3h1v-3h1c.33-3.333.67-6.667 1-10h1v-5h1v-6h1c-.33-1-.67-2-1-3h1v-2h1v-1h-1c.33-.667.67-1.333 1-2-.83-1.145-1.26.389-1-1h1c.41-1.972-.4-1.265-1-2v-1h1v-5h1v-4h1v-2h1v-4h1v-2h1c-.33-.667-.67-1.333-1-2h1c.33-2.333.67-4.667 1-7h1c-.33-1-.67-2-1-3 .67-.333 1.33-.667 2-1v-1h-1c.33-1.667.67-3.333 1-5h1v-5c.67-.333 1.33-.667 2-1v-1h-1q.495-6 1-12h2c-1.3-3.68.48-8.313 1-13h2c-.59-3.715-.58-2.289 0-6h2c-.69-2.3-1.17-2.108 0-5h1v-4h1c.04-.778-.92-1.9-1-4 .67.333 1.33.667 2 1v-1c-.96-1.109-.84-5.675 0-8h1v-5h1v-3h1v-1h-1v-2h1v-1h-1v-1h1v-8h1c.33-1.666.67-3.334 1-5h1v-1h-1v-1h1v-9h1v-7c1.35-4.535 2.8-9.321 3-15a3.991 3.991 0 0 0 2-2h1v2h1v1c-.94 1.775.22 5.031-1 9h-1v9c-.33.667-.67 1.333-1 2h1v5h-1v1h1v1h-1v1h1c-.16 1.405-.84-.405-1 1v1h1v1h-1v5h-1v4h-1c.33.667.67 1.333 1 2h-1c-.33 3.333-.67 6.667-1 10h1v1h-1v11h-1v7h-1v1h1v3h-1c-.23 1.37 1.35.818 0 4h-1v4h-1v4h-1v6h-1v1a2.576 2.576 0 0 1 1 3h-1v4h-1v9h-1v6h-1v4h-1v3c-.67.333-1.33.667-2 1v4h-1c.33.667.67 1.333 1 2h-1v2h-1v5h-1v3h-1v3h-1v2h-1v2h-1c.33.667.67 1.333 1 2h-1v2h-1v5h-1v5h-1v5h-1v2h-1v3h-1v6h-1v4h-1v2h-1v5h-1c-.52 1.918.47 1.335 1 2v1h-1v6c-.67.333-1.33.667-2 1-.33 2.333-.67 4.667-1 7-.67.333-1.33.667-2 1-.33 1.667-.67 3.333-1 5h-1v2h-1c-.33 2-.67 4-1 6h-1c-.7 2.317 1.2 2.742 1 4h-1c-.33 2.666-.67 5.334-1 8h-1v4h-1v3c-.67.333-1.33.667-2 1-.33 3-.67 6-1 9-.67.333-1.33.667-2 1v3h-1v2h-1v3h-1v1c.49.545 1.58-.291 1 1-.67.333-1.33.667-2 1-.67 3-1.33 6-2 9-1.1 2.722-2.48 2.49-3 7ZM210 103h2v1c-2.01-.574-.865.12-2-1Zm2 1h2v1c-2.01-.574-.865.12-2-1Zm3 2h2v1h-1v1c-1.139-1.139-.4 0-1-2Zm1183 0c-.88 3.6-3.05 4.421-4 8-2.76.723-2.24.279-3 3h-2c-1.01 3.858-2.93 3.142-4 7h-2v2h-2c-.33 1.333-.67 2.667-1 4h-2v3h-1c-1.14 1.139 0 .4-2 1-.62 2.822-4.02 4.008-2 6h-2c-.67 3-1.33 6-2 9-.67.333-1.33.667-2 1v3h-1v2h-1v2h-1v2h-1c-.33 1-.67 2-1 3h-2c-.7 1.332-1.5 1.287-2 2v2c-1.41.072-.3.227-1-1-1.08 1.131-.44-.008-1 2h-2c-.33 1-.67 2-1 3h-1v2c-.67-.333-1.33-.667-2-1-.33.667-.67 1.333-1 2h-1c.33 1 .67 2 1 3-1.33 1-2.67 2-4 3v2h-1v2h-1v3c-.67.333-1.33.667-2 1 .33 1 .67 2 1 3h-1c-.33 1.667-.67 3.333-1 5h-2c.05 1.413.76-.393 1 1 1.89.86-2 1-2 1q-2.505 8-5 16h-1v2h-1c-.33 2.333-.67 4.667-1 7h-1v2c-.67.333-1.33.667-2 1v2h-1c-.67 2-1.33 4-2 6-2.76.723-2.24.279-3 3-3.08.792-3.38 1.883-4 5h-2q-4.005 11.5-8 23c-.67.333-1.33.667-2 1v2h-1v2h-1c-.33 1-.67 2-1 3-3.43.871-2.57 2.068-6 3a7.839 7.839 0 0 1-2 4h-1v2h-1c-.67 1-1.33 2-2 3-.67.333-1.33.667-2 1v2q-4.005 3.5-8 7v2l-3 2v2c-1.67 1.333-3.33 2.667-5 4v2c-2.33 1.667-4.67 3.333-7 5v2h-2c-2.22 3.813-4.53 3.665-8 6-.33.667-.67 1.333-1 2h-2c-.33 1-.67 2-1 3l-3 1-3 4-3 1c-1.95 2.29 1.07 1.806-3 3v2c-2.76.723-2.24.279-3 3h-2v1h-2c.33.667.67 1.333 1 2h-2v1l-3 1v2l-3 1c-.33.667-.67 1.333-1 2a11.875 11.875 0 0 1-7 3v2h-1a21.117 21.117 0 0 1-4 3v1h-2c-.72 2.762-.28 2.237-3 3v2l-4 1c-.87 3.428-2.07 2.575-3 6l-4 1v3h-4c-.33 1-.67 2-1 3-3.53.828-5.48 3.083-9 4v2l-5 1c-.33.667-.67 1.333-1 2h-5v1h-2v1c-.67-.333-1.33-.667-2-1v1c1.14 1.139.4 0 1 2h-1v-1c-1.62.2-1.78 1.926-2 2-.67-.333-1.33-.667-2-1v1c-1.14 1.139-.4 0-1 2h-2v3h-3c-.33 1-.67 2-1 3h-1v3h-1c-1.14-1.139 0-.4-2-1 .2 1.271 1.37 2.168 0 4-.67-.333-1.33-.667-2-1v3l-3-1c.31.871 1.91 2.214 1 4h-1c-1.14-1.139 0-.4-2-1v2h-2v2h-2v2c-.67-.333-1.33-.667-2-1v3l-3-1c-1.05 4.062-.44 1.246-3 3v1l-3 1v2h-2c-.33 1.333-.67 2.667-1 4-3.13-1.01-1.52-.557-5 0-.33 1-.67 2-1 3-2.29.195-2.6.169-4 1v1h-4v1c-1.14 1.139-.4 0-1 2-2.02.179-2.99-.049-4 1v2c-1.39 1.277-1.04-1.69-1-2-1.55-1.23-.88 1.655-1 2l-4 1v2c-8.04.337-8.97 5.425-17 6v2c-2.32.218-2.56.208-4 1v1c-2.05.854-1.8-1.725-5 0-.33.667-.67 1.333-1 2-2.22.982-3.89-.859-5-1v1l-4 1v1l-6 1v-1h-1c-.33.667-.67 1.333-1 2l-3-1v1h-3v1l-4-1v1h-2v1l-21 1v1l-3-1v1h-4v1c-2.36.672-2.65-1.068-4-1v1h-6v1c-.51.091-2.73-1.443-5-1v1c-.67-.333-1.33-.667-2-1v1h-1v-1c-1.4-.207.393.755-1 1l-2-1v1a1.74 1.74 0 0 1-2-1l-2 1v-1h-1v1h-10v1l-2-1v1c-1.75.3-1.64-.9-2-1h-11v1a2.635 2.635 0 0 1-3-1l-2 1v-1h-4v1h-1v-1h-10v-1h-1v1h-5v1h-1v-1h-1c-4.811 1.916-12.48-.6-18 1v1h-31v-1h-1v1h-12c-1.371.348.41.889-1 1v-1h-1v1h-7v1h-1s-.892-1.285-2-1v1l-8 1v1h-7v1h-3v1h-4v1h-2v1h-3v1h-3v1h-3v1h-6v1l-7 1v1h-4v1h-6v1h-1a2.141 2.141 0 0 0-2-1v1c-3.661 1.113-5.469.292-8 0v1c-3.011 1.067-1.91.3-4 0v1l-6 1-1 2-9 2v2h-1v-1l-3 1v-1h-1v2c-1.176.786-.508-.887-1-1-1.378-.317.349.576-1 1-2.239.7-2.714-.768-4-1l-1 2-2-1v1h-4v1h-4v1h-3v1c-1.681.461-1.784-.955-2-1-1.653-.342-1.8.96-2 1l-4-1v-3l9-3 1-2 6-1 1-2h3v-1l6-1v1h1l1-2h4v-1h2v-1h4v-1h2v-1l10-1v1c2.291.559 8.5-1.544 10-2h6v-1h3v-1l2 1v-1h4v-1h5v-1h5v-1h5v-1h6v-1h4v-1h5v-1l12-1v-1h10v-1l2 1c2.766-1.15 9.655-1.644 14-1v1l2-1h22v1h1v-1c2.408-.457 2.6 1.014 4 1v-1h6v-1l2 1v-1c2.271-.458 3 1 3 1a1.765 1.765 0 0 0 2-1c1.4-.226-.389.732 1 1l9-1v-1h27v-1h10v-1l2 1v-1h1v1h1v-1l2 1v-1h3v-1h9v-1h11v-1h4v-1h5v-1h1v1h1v-1h7v-1h4v-1h5v-1h6v-1h4v-1h5v-1h1v-1c.67.333 1.33.667 2 1 .33-.667.67-1.333 1-2h1v1c1.82.373 6.79-2.6 8-3 .67.333 1.33.667 2 1 .33-.667.67-1.333 1-2h4v-1h2c.33-.667.67-1.333 1-2h4v-1l4-1v-2c.67.333 1.33.667 2 1v-1h2c.67-1 1.33-2 2-3h2c.33-.667.67-1.333 1-2h2c.33-.667.67-1.333 1-2h3c.67-1 1.33-2 2-3h3v-1c1.86-1.341 1.93-1.547 5-2v-2c7.06-.82 8.89-6.989 16-8v-2c.48-.859 8.43-5.625 10-6v-2h3v-1c1.67-2 3.33-4 5-6 1.33-1 2.67-2 4-3v-2c1.33-.667 2.67-1.333 4-2 2.37-2.158 2.11-3.956 6-5v-2h2v-2l7-1v-2h5c.33-.667.67-1.333 1-2l5-1v-2c.67.333 1.33.667 2 1v-1c1.41.111.48-.314 1 1 1.45-1.1.32-.012 1-2 8.01-1.622 10.09-8.141 17-10v-2l3-1c.67-1 1.33-2 2-3h2c.67-1 1.33-2 2-3h2c.33-.667.67-1.333 1-2h2c.33-.667.67-1.333 1-2h2v-1l3-1v-2c2.28-.246 2.6-.137 4-1v-1h3c.67-1 1.33-2 2-3h2c.33-.667.67-1.333 1-2h2c1.33-1.667 2.67-3.333 4-5h2c1.33-1.667 2.67-3.333 4-5h2v-1l3-2c.67-1 1.33-2 2-3l4-1c.67-1 1.33-2 2-3h2c.33-.667.67-1.333 1-2l4-1c.33-.667.67-1.333 1-2h2l3-4c3.7-2.671 8.71-5.044 10-10h2c1.08-2.352 2.29-3.249 3-6h2c1.37-2.491 3.72-3.238 5-5 .33-1 .67-2 1-3l3-2c.33-1 .67-2 1-3h2c.68-2.927 1.11-3.274 4-4v-2h2v-2h2c.33-1 .67-2 1-3h1v-2h1v-3c.67-.333 1.33-.667 2-1q1.005-5 2-10h1v-3h1v-4c.67-.333 1.33-.667 2-1 .33-1.333.67-2.667 1-4h2c.33-1.667.67-3.333 1-5h2l3-4h1v-4h1c.33-1.333.67-2.667 1-4h1q1.005-5 2-10h1v-2h1c.33-2.666.67-5.334 1-8 .67-.333 1.33-.667 2-1 .33-2 .67-4 1-6h1v-2h1c.33-2.666.67-5.334 1-8h1c.33-1.667.67-3.333 1-5h1v-2h1v-3c.67-.333 1.33-.667 2-1 .33-1.333.67-2.667 1-4 .67-.333 1.33-.667 2-1v-2l3-2v-2l3-1v-1c1.7-1.431 2.42-2.344 5-3v-2h2c-.02-2.723.01-5.295 1-7 .67-.333 1.33-.667 2-1 .33-2 .67-4 1-6h1v-2h1v-2c.67-.333 1.33-.667 2-1v-2c.67-.333 1.33-.667 2-1 1.9-3.307-1.52-3.571 4-5a10.1 10.1 0 0 1 7-7v-2h2c1.46-5.773 11.69-12.719 19-13Zm-755 85 58 8c3.11.965 6.031 2.541 10 3v2l-3 1v1h-2l-1 2h-2v1l-6 2v1h-3v1l-4 1v1h-3v1l-4 1v1h-3v1l-4 1v1h-3v1h-2v1l-4 1v1h-3v1h-2v1l-8 3 4 14h1v4h1v3h1v3h1v3h1v3h1v3h1l2 10h1l1 6h1v2h1l1 7c2.89 7.245 6.518 14.045 7 24-3.272-.878-4.728-3.094-7-5v-1h-2l-10-11h-2l-7-8h-2v-1l-4-3c-2.01-2.758-1.137-3.921-5-5l-1 7h-1v4h-1v3h-1l-3 14h-1v4h-1l-3 13h-1v3h-1v2h-1v3h-1v3h-1v2h-1l-1 5h-1c-.825 1.671-2.917 8.357-4 9h-2l-15-63-60 12a15.634 15.634 0 0 1 3-8l2-1v-2l2-1v-2h1l1-3 2-1v-2l3-2v-2l3-2v-2l3-2v-2l3-2v-2l3-2v-2l2-1 1-3h1c1.443-1.752 2.269-2.415 3-5h-1a7.766 7.766 0 0 0-2-4h-1v-2l-2-1v-2l-2-1v-2l-2-1v-2l-2-1v-2l-3-2v-2l-2-1v-2l-3-2v-2l-2-1v-2l-3-2v-2l-2-1v-2h-1l-1-3-2-1v-2l-3-2v-2h-1l-1-3-2-1v-2l-3-2v-2l-2-1-1-4-2-1-1-3h-1a8.19 8.19 0 0 1-2-4c5.6.487 9.036 3.854 13 6l4 1 1 2 4 1v1h2l1 2 4 1 1 2 6 2 1 2 4 1 1 2h2v1h2l1 2h2l1 2 4 1 1 2h2c.6.4.809 1.333 2 2v-7c-1.979-2.249-.02-6.474-1-10h-1v-9h-1v-8c-1.488-5.3-3.212-14-1-20 1.135.844.145-.127 1 1 3.122 1.9 4.118 4.81 6 8h1v2l2 1v2l3 2v2l5 4v2l4 3v2l2 1v2h1l1 3h2l3-4h2l4-5h2l3-4h2l4-5h2l5-6h2l5-6h2l4-5h2l3-4h2l1-2c2.642-2.42 6.569-5.486 11-6v1h-1v6h-1v2h-1l-2 6h-1l-1 4h-1v2h-1v2h-1v2h-1v2h-1l-2 6-2 1v2c-1.766 3.137-4.054 5.873-5 10Zm721-8 3 1c-.93 3.118.37 5-1 9h-1v3h-1c.33.667.67 1.333 1 2h-1c-.33 1.333-.67 2.667-1 4h-1c-.33 1.667-.67 3.333-1 5h-1c-.33 2.333-.67 4.667-1 7h-1v2c-.67.333-1.33.667-2 1-.33 2-.67 4-1 6h-1v2c-.67.333-1.33.667-2 1v3c-.67.333-1.33.667-2 1v3h-1c-.67 2-1.33 4-2 6h-1c-.33 2.333-.67 4.667-1 7h-1c-.33 1.333-.67 2.667-1 4h-1c-.33 2.333-.67 4.667-1 7h-1v2h-1v3h-1c-.33 1.333-.67 2.667-1 4h-1v4h-1v2h-1v5h-1v2h-1c.33.667.67 1.333 1 2-.67.333-1.33.667-2 1q-1.005 6-2 12h-1c-.33 1.333-.67 2.667-1 4h-1v4h-1c-.33 2-.67 4-1 6h-1v2h-1c-.33 2.666-.67 5.334-1 8h-1l-3 9h-2a12.638 12.638 0 0 0-1 5h-2c-.67 2-1.33 4-2 6h-2c-.33 1.333-.67 2.667-1 4-2.93.684-3.27 1.113-4 4h-3v2h-2v2h-2c-.33 1.333-.67 2.667-1 4-2.52.612-1.65.534-3 2h-1v2h-1c-.33 1-.67 2-1 3h-2c-.67 1-1.33 2-2 3h-1v2c-.67.333-1.33.667-2 1v2c-1.33 1-2.67 2-4 3 .33.667.67 1.333 1 2h-1c-1.14 1.139 0 .4-2 1-.68 3.409-2.23 4.613-3 8h-2a11.831 11.831 0 0 1-3 7c-.67.333-1.33.667-2 1v2q-4.995 8-10 16h-2v3c-3.54 2.03-12.41 14.153-13 19h-2c-.64 2.739-1.31 2.276-2 5h-2c-.24 1.024-8.7 13.825-9 14h-2v2a12.708 12.708 0 0 0-6 3v1l-4 1c-.67 1-1.33 2-2 3q-3.495 3-7 6v2l-6 5c-.33.667-.67 1.333-1 2h-2c-.33.667-.67 1.333-1 2l-6 2c-.33.667-.67 1.333-1 2h-3c-.67 1-1.33 2-2 3l-4 1c-1.67 2-3.33 4-5 6h-2v1h-2v1h-2v1h-2c-.33.667-.67 1.333-1 2l-12 4c-.33.667-.67 1.333-1 2h-2c-.67 1-1.33 2-2 3l-4 1v1l-3 1c-.67 1-1.33 2-2 3l-6 1c-.33.667-.67 1.333-1 2h-3v1h-4c-.33.667-.67 1.333-1 2h-5v2h-1c-.18-.152.57-3.4-1-2v1c-1.14 1.139-.4 0-1 2-4.4.139-6.18 1.514-9 3h-2c-.33.667-.67 1.333-1 2h-2v1h-1v-1l-3 1v1h-2v1h-2v1c-1.37.91-1.75.712-4 1v2a7.161 7.161 0 0 1-4-1v1c-1.14 1.139-.4 0-1 2h-2c.33-.667.67-1.333 1-2h-1c-1.12 1.645-2.35 2.938-5 3v-1h-1v1h-4v1l-3-1v1c-3.44 1.165-2.62-.271-4 0v1h-1v-1h-1c-1.64.213-1.06 1.452-2 2h-2v1c-.67-.333-1.33-.667-2-1v2c-2.01-.574-.87.12-2-1-1.67.333-3.33.667-5 1-.33.667-.67 1.333-1 2-1.64.749-3-1-3-1h-1v2h-2v-1c-.67.333-1.33.667-2 1v-1h-1l-3 4h-1v-1l-4 1c-.33.667-.67 1.333-1 2l-3-1v1h-5v1h-1v-1h-1c-.33.667-.67 1.333-1 2h-5v1h-1c-.55-.287-.12-1.588-2-1v1h-2v1h-3c-.33.667-.67 1.333-1 2h-2v1c-1.37.919-1.76.7-4 1v2h-2v1c-1.394.238.128-.148-1-1-1.388.273.334.53-1 1h-3v1h-2v1h-3v1h-3v1l-4 1v1h-1v-1l-6 2v-2c-1.773.184-1.824 1.964-2 2l-3-1s-.54 1.123-3 1c-.926-.774.373-1.34-1-1v2c-1.837-.193-1.754-1.955-2-2h-1v1h-3v-1h-1v1h-6v1h-1a1.689 1.689 0 0 0-2-1v1h-5v1h-1v-1h-12v1l-4-1v1a1.768 1.768 0 0 1-2-1c-3.659-.743-14.716 1.524-21 0v-1c-1.738-.34-1.673.918-2 1h-21v-1l-2 1v-1l-21-1v-1h1c1.57-1.33 7.844-1.618 11-1 1.388.272-.4 1.158 1 1v-1h12c3.576.881 35.54.846 43-1l20-1v-1l2 1v-1l9-1v-1l2 1v-1h9v-1h5v-1h5v-1h2l1-2h4v-1l4-1v-1h2l2-3 2 1 3-4 5-1v-1h2c.33-.667.67-1.333 1-2h2v-1l7-1v-1h6v-1h3v-1h2v-1l6-1v-1h2v-1h4v-1h2v-1h4v-1h2v-1l8-1v-1l11-2v-1c1.41.11-.14.162 1 1 2.12-.088 2-1 2-1h5v-1c1.9-.523 1.35.419 2 1h1v-1h4v-1h3v-1h3v-1h2v-1c.67.333 1.33.667 2 1 .33-.667.67-1.333 1-2l12-2v-1h2v-1l9-2v-1c.67.333 1.33.667 2 1v-1h4v-1h4v-1h4v-1h3v-1h3v-1l6-2v-1h2c.67-1 1.33-2 2-3h2v-1l4-1v-1h3v-1h3v-1h3v-1h3c.33-.667.67-1.333 1-2l5-1c.33-.667.67-1.333 1-2h2c.67-1 1.33-2 2-3h2c.67-1 1.33-2 2-3h2c.33-.667.67-1.333 1-2h2v-1h2v-1h2v-1h2v-1h2q5.505-5 11-10v-2h1c1.43-1.731 2.32-2.412 3-5h2v-2h2c2.06-3.386 4.9-3.774 8-6 .33-.667.67-1.333 1-2 4.15-3.928 8.56-7.354 10-14h2c.68-2.6 1.58-3.253 3-5h1v-2c.67-.333 1.33-.667 2-1v-2h1v-2h1v-2h1c.91-1.38.69-1.753 1-4h2c.38-3.541 1.24-3.036 2-6h2a7.835 7.835 0 0 1 2-4h1c.33-1.333.67-2.667 1-4 .67-.333 1.33-.667 2-1v-2c.67-.333 1.33-.667 2-1v-2l3-2v-3c.67-.333 1.33-.667 2-1 .33-1.667.67-3.333 1-5l3-2c.33-1 .67-2 1-3h1v-2h1v-2h1v-2h1v-2c.67-.333 1.33-.667 2-1v-2c.67-.333 1.33-.667 2-1 .33-1.333.67-2.667 1-4 .67-.333 1.33-.667 2-1v-2h1a13.134 13.134 0 0 0 3-6h2v-3h2c1.3-6.024 6.47-6.537 8-12h2v-2c4.15-1.034 5.26-4.745 6-9h2l3-9c.67-.333 1.33-.667 2-1v-3c.67-.333 1.33-.667 2-1-.33-.667-.67-1.333-1-2h1v-3h1v-1c-.46-.526-1.6.28-1-1 .67-.333 1.33-.667 2-1v-4h1v-3h1v-3h1v-1h-1v-1c.67-.333 1.33-.667 2-1v-2h1c-.33-.667-.67-1.333-1-2h1v-3h1v-2h1v-4h1v-1h-1v-1h1v-3h1v-4c.67-.333 1.33-.667 2-1 .33-2.333.67-4.667 1-7h1c.33-1.333.67-2.667 1-4h1v-3c.67-.333 1.33-.667 2-1 .67-3 1.33-6 2-9 .67-.333 1.33-.667 2-1v-2h1v-3h1c.33-1.333.67-2.667 1-4h1v-3c.67-.333 1.33-.667 2-1 .33-1 .67-2 1-3h1l3-9c.67-.333 1.33-.667 2-1 .67-2 1.33-4 2-6l3-2c.33-1.667.67-3.333 1-5 .67-.333 1.33-.667 2-1v-3h1v-2h1v-2c.67-.333 1.33-.667 2-1v-2c.67-.333 1.33-.667 2-1v-3c.67-.333 1.33-.667 2-1v-2h1c.67-2 1.33-4 2-6Zm8 59h2c-.76 2.4.27 4.541-1 9h-1v1h1c-.24 1.394-.59-.355-1 1v4h-1c-.33 1.333-.67 2.667-1 4-.67.333-1.33.667-2 1v2c-1.44 2.5-3.18 3.477-4 7h-2c.69 3.753 1.05 5.538-1 9-.67.333-1.33.667-2 1v5c-.67.333-1.33.667-2 1 .33.667.67 1.333 1 2-.67.333-1.33.667-2 1-.33 2-.67 4-1 6h-1v2h-1c-.33 1.667-.67 3.333-1 5h-1c.33.667.67 1.333 1 2h-1v2h-1v3h-1v4h-1c-.33 1.333-.67 2.667-1 4h-1v3c-.67.333-1.33.667-2 1v5h-2c-.01 5.333-1.44 5.833-2 10h-2v3h-1v1h1c-1.11 1.373.01.358-2 1-.49 4.336-1.42 2.641-2 7h-2v1h-1v3l-3 2c.33.667.67 1.333 1 2-.67.333-1.33.667-2 1v3c-.93 1.968-2.99 3.544-4 6h1v1h-2c-.9 4.623-10.81 16.938-15 18-1.01 3.858-2.93 3.142-4 7h-2v3c-3.18 1.865-3.02 3.11-5 6-.67.333-1.33.667-2 1v2c-1.33.667-2.67 1.333-4 2v1c-.67.333-1.33.667-2 1v2l-3 1c-.67 1-1.33 2-2 3l-4 1v1c-1.78 1.425-2.39 2.292-5 3-.72 2.762-.28 2.237-3 3-1.12 4.305-3.17 3.452-5 6v2l-3 2c-.33 1.333-.67 2.667-1 4-.67.333-1.33.667-2 1v2c-.67.333-1.33.667-2 1v2h-1a8.254 8.254 0 0 0-2 4h-2v2h-2c-.98 3.374-1.21 1.913-3 4h-1v2c-3.43.871-2.57 2.068-6 3-1.09 4.1-.55 1.111-3 3-.67 1-1.33 2-2 3h-1c-.33 1-.67 2-1 3h-2v2h-2c-.98 4.642-3.91 5.385-5 10h-2c-.97 4.788-3.86 5.9-5 10h-2v2a7.735 7.735 0 0 0-4 2v1h-2v1h-2v1h-2c-.33.667-.67 1.333-1 2l-6 2c-.67 1-1.33 2-2 3h-2c-1.33 1.667-2.67 3.333-4 5h-2l-3 4h-2c-.67 1-1.33 2-2 3h-3c-1.33.482.39.742-1 1v-1h-1c.33.667.67 1.333 1 2h-2c-2.65 1.517-3.49 2.822-8 3v2c-1.13-.844-.15.127-1-1-1.14-1.139-.4 0-1-2h2v-1c.67.333 1.33.667 2 1v-1c1.14-1.139.4 0 1-2a39.864 39.864 0 0 0 8-2l3-4h2c.33-.667.67-1.333 1-2h1c.33-1 .67-2 1-3h2l6-7 4-1c.33-.667.67-1.333 1-2h2c.67-1 1.33-2 2-3l5-1q4.005-5 8-10c.33-1.333.67-2.667 1-4h1c1.36-1.782 1.63-1.968 2-5h2c.33-1 .67-2 1-3 .67-.333 1.33-.667 2-1v-2c1.33-1 2.67-2 4-3v-2h1l3-4h2c1.67-2 3.33-4 5-6h2c.33-.667.67-1.333 1-2q4.005-3.5 8-7v-2h2c.33-1 .67-2 1-3h1v-2c.67-.333 1.33-.667 2-1v-2c.67-.333 1.33-.667 2-1 .33-1.333.67-2.667 1-4h1a8.29 8.29 0 0 0 2-4h2a7.536 7.536 0 0 1 6-6v-2h2l3-4h2l3-4h2c.33-1 .67-2 1-3h1c1.33-1.667 2.67-3.333 4-5h1v-3l3-2v-2c.67-.333 1.33-.667 2-1 .33-1 .67-2 1-3h1c.33-1 .67-2 1-3h2c.78-3.735 2.83-5.677 5-8 .67-.333 1.33-.667 2-1 .33-1.333.67-2.667 1-4l3-2c.33-1.333.67-2.667 1-4h1v-2h1c.67-2 1.33-4 2-6h1v-3h1v-2c.67-.333 1.33-.667 2-1l3-9h2l3-9h1c.67-3 1.33-6 2-9 .67-.333 1.33-.667 2-1v-5c.67-.333 1.33-.667 2-1v-3c.67-.333 1.33-.667 2-1v-4h1v-2h1c.33-1.667.67-3.333 1-5h2c.21-5.208 2.19-6.769 4-10v-2c.67-.333 1.33-.667 2-1 .33-2 .67-4 1-6 .67-.333 1.33-.667 2-1v-3h1c.33-1.333.67-2.667 1-4h1v-2c.67-.333 1.33-.667 2-1v-3c1.67-1.333 3.33-2.667 5-4v-2c1.67-1.333 3.33-2.667 5-4v-3l3-2v-4h1c.33-3 .67-6 1-9Zm-135 16h2v-2l3-1v-1h2c.33-.667.67-1.333 1-2h3c-.33-.667-.67-1.333-1-2h3c.57-2.444 1.05-2.206 2-4h-13v-1c-1.4-.226.27.374-1 1-2.66 2.761-3.43 11.952-5 16h1c1.14-1.139 0-.4 2-1 .33-1 .67-2 1-3Zm-216 57h-2v2h-3v2c-.67-.333-1.33-.667-2-1-.33.667-.67 1.333-1 2h-1v-1l-6 1c-.67 1-1.33 2-2 3h-8v1h-1v-1l-3 1v1l-2-1v1h-8v-1l-3 1v-1h-1v2h-1v-1c-2.137-.57-18.911 1.867-19 2v-2h-4v1h-1v-1l-12-1v-1h-1v1l-3-1v1h-4s-.386-1.434-3-1v1h-1v-1h-6v-1h-1v1l-2-1a1.575 1.575 0 0 1-2 1v-1c-3.141-1.2-2.962.291-4 0v-1h-5v-1h-5v-1h-5v-1c-1.393-.241.176.214-1 1-1.408-.134.4-.8-1-1l-2 1v-1h-3v-1h-2v-1h-3v-1h-2v-1l-3 1-2-3h-2v-1l-2 1v-1h-1v-1h1v-1h-2c-1.658-1.318-2.193-5.63-1-7h-2c.22-1.667 1-2 1-2l-1-3c1.007-2.069 2.958-4.806 5-6 .9-1.094-.174-.211 1-1v1c1.654.979.846-1.44 1-2 7.138-.648 12.951-4.109 19-6h11v-1h1a2.794 2.794 0 0 0 3 1v-1h5v-1h11v-1h1v1c2 .266 1.255-.6 2-1h1v1h4l3-1v1h13v1c1.4.173-.38-.692 1-1l14-1v1h1c.565-.519-.3-1.558 1-1l1 2h5v1l2-1v1h2v1l2-1v1h6v1h4v1h4v1h4v1h6c4.4 1.407 11.73 4.5 14 8 1.28 1.223 5.73 10.9 4 15h-1c-.82 1.457-.68 1.708-1 4Zm256 37c1.14 1.139.4 0 1 2h-1v-2Zm-4 3c.61.681 1.58 1.053 1 3-1.1.883-.89-.823-1-1h-1v-1h1v-1Zm-2 2h1c1.5 2.924-2 4-2 4-1.68-1.914.02-2.145 1-4Zm-5 3h3v1c-.17.088-6 4-6 4v2c-2.76.723-2.24.279-3 3h-2v-3c2.89-1.577 4.57-4.079 8-5v-2Zm-8 10c-1.17 4.431-3.76 3.55-5 8-2.76.723-2.24.279-3 3h-2v2h-2c-1.16 2.716-1.78 4.18-5 5-.5 2.1-2.71 5.477-4 7-.67.333-1.33.667-2 1v2h-1c-1.35 2.175.45 1.427-2 3v1c-1.4.226.27-.374-1-1-1.14-1.139-.4 0-1-2 1.98-1.129 2.34-1.417 3-4h2a11.077 11.077 0 0 1 2-5h1v-2h1c1.38-1.523.89-2.469 3-1v-2h1v-2h1c.33-.667.67-1.333 1-2l3-1v-2l3-2v-2c.91-1.252 5.1-3.594 7-4Zm-38 51h-2c-2.02 3.441-3.1 2.913-6 5l-3 4-4 1c-.33.667-.67 1.333-1 2l-4 1c-.67 1-1.33 2-2 3h-2c-.67 1-1.33 2-2 3l-3 1v1c-2.28 1.911-3.73 4.105-7 5v2l-4 1v2h-2c-1.78 2.723-4.4 3.062-7 5-1.33 2-2.67 4-4 6h-3c-.33.667-.67 1.333-1 2h-2c-.67 1-1.33 2-2 3h-2c-.33.667-.67 1.333-1 2l-6 1c-.33.667-.67 1.333-1 2-1.98 1.165-3.85-.078-4 0-.33.667-.67 1.333-1 2-2.47 1.4-4.59-.123-5 0v1h-2v1c-1.48.543-3.91-1.1-4-1v2h-3c-.99.465-.8 3.273-3 1v2c-2.54.06-3.53.1-5 1v1h-3c-.33.667-.67 1.333-1 2h-2v1l-3-1c-.33.667-.67 1.333-1 2h-2v1l-3-1v1h-2c-.33.667-.67 1.333-1 2h-4v1h-2v1h-2c-.33.667-.67 1.333-1 2l-6 1c-.33.667-.67 1.333-1 2l-4 1c-.67 1-1.33 2-2 3-1.19-.243-1.87-1.789-4-1v1h-2c-.33.667-.67 1.333-1 2h-4v1l-5 1v1h-2v1l-10 2v1l-4 1v1l-4 1c-.33.667-.67 1.333-1 2h-3c-.33.667-.67 1.333-1 2h-2v1c-.67-.333-1.33-.667-2-1v1h-2v1h-1v-1c-2.53.442-8 1.942-12 1 0 0 .09-1.294-2-1v1c-2.45.448-3-1-3-1l-5 1v-1a1.7 1.7 0 0 0-2 1c-1.4.167.23-.308-1-1-.67.333-1.33.667-2 1a1.622 1.622 0 0 0-2-1v1h-1v-1h-16v-1h-12v-1l-3 1v-1h-9v1h-1v-1h-1v1h-4l-1 2-8 1v1h-2v1c-1.379.314.1-.222-1-1h-1v1h-4l-2 3-3-1v1h-3v2c-8.9.159-17 2.2-18-2h-6v-2c-3.091.26-1.924 1.064-5 0v-1l-2 1s-.483-1.437-3-1v1h-1v-1h-12v-1c-.034 0-3.787 1.228-6 1l-2-1v1h-1v-1h-1v1h-4v1l-8 1-1 2-2-1v1h-4v1h-3v1h-3v1h-2v1h-4v1h-1v-1h-1v1l-9 1v1l-2-1v1c-2.687.72-5.648-1.024-7 1h-1v-1c-1.135-.844-.145.127-1-1l6-1v-1l9-1v-1h3v-1h3v-1h3v-1h2v-1h3v-1l4-1v-1h3v-1h2v-1l6-1v-1h3v-1h2v-1h3v-1l12-1v-1c1.931-.5 1.324.483 2 1h1v-1h10v-1h1v1h6v1l3-1v1h2v1h5v1h2v1h4v1a2.613 2.613 0 0 0 3-1c2-.3 2 1 2 1l6-1v1l5-2v1h1v-1h9v-1h5v-1l2 1v-1h4v-1h12v1l4-1v1h6s-.217 1.073 2 1v-1c1.41.105-.38.69 1 1h9v1h36v-1l9-3c.33-.667.67-1.333 1-2h2c.33-.667.67-1.333 1-2l4-1c.33-.667.67-1.333 1-2h2c.33-.667.67-1.333 1-2h2v-1h2v-1h3c.33-.667.67-1.333 1-2h2v-1h3c.33-.667.67-1.333 1-2h2v-1h2v-1q5.505-2 11-4v-2c2.24-.245 2.65-.093 4-1v-1h2c.33-.667.67-1.333 1-2h3c.33-.667.67-1.333 1-2l4-1c.33-.667.67-1.333 1-2l10-2v-1l6-2v-1h4v-1c1.44-.846 1.72-.676 4-1v-2a55.181 55.181 0 0 0 8-2c.33-.667.67-1.333 1-2l3 1c.33-.667.67-1.333 1-2h5v-1h3v-1l5-1v-1h2v-1h3v-1h2c.33-.667.67-1.333 1-2h2v-1l5-1 3-4h2v-1h2v-1h2v-1h2v-1h2v-1h2c.33-.667.67-1.333 1-2l4-1c.33-.667.67-1.333 1-2h2c.33-.667.67-1.333 1-2h2c.33-.667.67-1.333 1-2l4-1v-1l3-1c.33-.667.67-1.333 1-2 .67.333 1.33.667 2 1 .33-.667.67-1.333 1-2h2v-1h2v-1h3c.33-.667.67-1.333 1-2h2c.33-.667.67-1.333 1-2h2c1.33-1.667 2.67-3.333 4-5l3-1v-1c1.33-1 2.67-2 4-3v-3c1.33-1 2.67-2 4-3v-3h1c.33-1 .67-2 1-3 1.13.844.15-.127 1 1 .42.579 1.63.147 1 2h-1a38.765 38.765 0 0 1-3 8l-3 2v2h-1c-1.44 1.753-2.27 2.415-3 5Zm-56 100c.42.579 1.63.147 1 2h-1s-1.04 2.4-2 1c.67-1 1.33-2 2-3Zm-7 3h2v1c-2.01-.574-.87.12-2-1Zm-4 5h-2c.84-1.135-.13-.145 1-1v-1c1.14 1.139.4 0 1 2Zm-89 35c.33-1 .67-2 1-3l24-8c.33-.667.67-1.333 1-2h4v-1l6-1v-1h2v-1l6-1c.33-.667.67-1.333 1-2h2v-1h2v-1h2v-1h2v-1h2v-1h2c.33-.667.67-1.333 1-2h3v-1l4-1v-1l6-1v-1h2v-1h3v-1l3 1c.33-.667.67-1.333 1-2 1.36-.371-.05.315 1 1h1v-1h4v1c-3.82.355-4.28 1.954-7 3l-9 2v1h-2c-.33.667-.67 1.333-1 2-1.67.333-3.33.667-5 1v1h-2v1h-2c-.33.667-.67 1.333-1 2h-2v1h-3c-.33.667-.67 1.333-1 2l-4 1c-.33.667-.67 1.333-1 2q-7.005 2-14 4v1h-2v1h-3v1h-3v1h-3v1l-6 1c-.33.667-.67 1.333-1 2l-3-1v1h-2v1h-5v1Zm-242-32v2a7.49 7.49 0 0 1-3-2h3Zm-6 1h3v1h-3v-1Zm29 29h5v1h-1v1c-1.317-.516.278-.394-1-1h-3v-1Zm13 0v3h-1v-1h-5l-1-2h7Zm203 1h2c-.84 1.135.13.145-1 1v1c-1.14-1.139-.4 0-1-2Zm-27 2h5v1h-1v1h-1v-1l-3 1v-2Zm-9 4c-3.92.862-5.46 2.735-8 0 1.98-.145 7.1-.476 7-2h1v2Zm-13 1h5v1l-10 2v-1h1v-1h4v-1Zm-11 4h2v1c-2.01-.574-.87.12-2-1Zm-6 1c1.139 1.139.4 0 1 2h-1v-2Zm-115 8c7.234-.1 11.472 1.835 17 3v2c2.726.761 3.021 1.663 5 3v1l2-1v1c4.023 1.131 8.263-1.05 11-1 8.347.153 21.023-5.049 27-7l14-2v1h1v-1c3.155-.661 4.662.153 7-1v1h1v1l-6 1v-1h-1v1h-3v1h-4v1h-4v1l-7 1v1h-2v1h-2l-1 2h-3v1h-2v1l-6 1v1l-10 1v1h-8v1h-1v-1h-4v-1h-2v-1c-1.382-.3.15.209-1 1l-3-1c.054-1.413.758.393 1-1 1.889-.86-2-1-2-1v1l-2-1v-1h-2v-1c-2.273-.823-5.458 1.081-6 1v-1h-3v-1l-3 1v-1h-4v-1h-1l-1 2c-1.391.257.4-.794-1-1l-3 1-1-2-7 1v-1h-1v1c-1.989.2-4.44-1.709-8-1-1.387.276.4 1.176-1 1v-1h-4v-1l-5 2v-1h-3v-1c-1.4-.187.395.766-1 1l-9-1v1h-1v-1h-2v-1h-1v1l-3-1v2h-1v-1l-2 1v-1h-1v1h-1v-1h-5v-1h-3v-1l-2 1v-1h-5v1h-1v-1c-2.983-.6-4.746.907-6 1v-1h-1v1h-5v1h-1v-1h-9v-1h-20c-1.392-.251.409-.873-1-1v1c-4.028 1.046-9.326-.353-11-2l18-1h7c1.386.281-.407 1.138 1 1v-1l13 1v-1h1v1l3-1v-1l3 1v-1l6-1v1h3v-1l2 1s.618-1.389 3-1v1h1v-1h4l2 1v-1h4v-1h3v-1c.42-.05 3.506 1.6 6 1v-1h1v1h1v-1h11v-1l2 1v-1l6 1v-1a1.739 1.739 0 0 1 2 1l2-1v1c2.146.481 3.022-1.295 4-1l1 2 2-1c1.376.325-.414 1.013 1 1v-1h1v1c1.4.165-.118-.134 1-1l3 1v-1h1v1h3v1c1.4.22-.2-.253 1-1l2 1c1.167-.79-.382-1.3 1-1v1c5.111 1.264 6.48-2.406 8 1Zm98-3h2v1c-2.01-.574-.865.12-2-1Zm-12 1h2v2h-2v-2Z" fill="currentColor" fill-rule="evenodd"/>
</svg>
